<svg width="31" height="31" viewBox="0 0 31 31" fill="none" xmlns="http://www.w3.org/2000/svg">
<rect width="31" height="31" rx="7" fill="white" fill-opacity="0.1"/>
<path d="M15.5 23.8125C13.2954 23.8125 11.1811 22.9367 9.62217 21.3778C8.06328 19.8189 7.1875 17.7046 7.1875 15.5C7.1875 13.2954 8.06328 11.1811 9.62217 9.62217C11.1811 8.06328 13.2954 7.1875 15.5 7.1875C17.7046 7.1875 19.8189 8.06328 21.3778 9.62217C22.9367 11.1811 23.8125 13.2954 23.8125 15.5C23.8125 17.7046 22.9367 19.8189 21.3778 21.3778C19.8189 22.9367 17.7046 23.8125 15.5 23.8125ZM15.5 25C18.0196 25 20.4359 23.9991 22.2175 22.2175C23.9991 20.4359 25 18.0196 25 15.5C25 12.9804 23.9991 10.5641 22.2175 8.78249C20.4359 7.00089 18.0196 6 15.5 6C12.9804 6 10.5641 7.00089 8.78249 8.78249C7.00089 10.5641 6 12.9804 6 15.5C6 18.0196 7.00089 20.4359 8.78249 22.2175C10.5641 23.9991 12.9804 25 15.5 25Z" fill="white" fill-opacity="0.7"/>
<path d="M15.5 23.6625C13.3352 23.6625 11.259 22.8025 9.72824 21.2718C8.19748 19.741 7.3375 17.6648 7.3375 15.5C7.3375 13.3352 8.19748 11.259 9.72824 9.72824C11.259 8.19748 13.3352 7.3375 15.5 7.3375C17.6648 7.3375 19.741 8.19748 21.2718 9.72824C22.8025 11.259 23.6625 13.3352 23.6625 15.5C23.6625 17.6648 22.8025 19.741 21.2718 21.2718C19.741 22.8025 17.6648 23.6625 15.5 23.6625ZM15.5 25.15C18.0593 25.15 20.5139 24.1333 22.3236 22.3236C24.1333 20.5139 25.15 18.0593 25.15 15.5C25.15 12.9407 24.1333 10.4861 22.3236 8.67642C20.5139 6.86669 18.0593 5.85 15.5 5.85C12.9407 5.85 10.4861 6.86669 8.67642 8.67642C6.86669 10.4861 5.85 12.9407 5.85 15.5C5.85 18.0593 6.86669 20.5139 8.67642 22.3236C10.4861 24.1333 12.9407 25.15 15.5 25.15Z" stroke="white" stroke-opacity="0.7" stroke-width="0.3"/>
<path d="M17.1624 14.235L14.2999 14.5938L14.1974 15.0688L14.7599 15.1725C15.1274 15.26 15.1999 15.3925 15.1199 15.7587L14.1974 20.0938C13.9549 21.215 14.3287 21.7425 15.2074 21.7425C15.8887 21.7425 16.6799 21.4275 17.0387 20.995L17.1487 20.475C16.8987 20.695 16.5337 20.7825 16.2912 20.7825C15.9474 20.7825 15.8224 20.5413 15.9112 20.1163L17.1624 14.235ZM17.2499 11.625C17.2499 11.9565 17.1182 12.2745 16.8838 12.5089C16.6494 12.7433 16.3315 12.875 15.9999 12.875C15.6684 12.875 15.3505 12.7433 15.1161 12.5089C14.8816 12.2745 14.7499 11.9565 14.7499 11.625C14.7499 11.2935 14.8816 10.9755 15.1161 10.7411C15.3505 10.5067 15.6684 10.375 15.9999 10.375C16.3315 10.375 16.6494 10.5067 16.8838 10.7411C17.1182 10.9755 17.2499 11.2935 17.2499 11.625Z" fill="white" fill-opacity="0.7"/>
</svg>
