<svg width="14" height="18" viewBox="0 0 14 18" fill="none" xmlns="http://www.w3.org/2000/svg">
<path d="M3.6999 6.2557C3.6999 6.10983 3.75785 5.96993 3.86099 5.86679C3.96414 5.76364 4.10403 5.7057 4.2499 5.7057H5.6689L5.912 4.4935C5.94416 4.35396 6.02947 4.23247 6.14979 4.15484C6.27011 4.07722 6.41596 4.04958 6.55635 4.0778C6.69673 4.10602 6.82057 4.18787 6.90155 4.30596C6.98253 4.42406 7.01426 4.56908 6.99 4.7102L6.792 5.7057H7.87L8.112 4.4946C8.14524 4.35645 8.23065 4.23652 8.35035 4.15995C8.47004 4.08338 8.61472 4.0561 8.75408 4.08383C8.89344 4.11156 9.01665 4.19214 9.09792 4.3087C9.17918 4.42526 9.21218 4.56875 9.19 4.7091L8.992 5.7057H10.026C10.1719 5.7057 10.3118 5.76364 10.4149 5.86679C10.5181 5.96993 10.576 6.10983 10.576 6.2557C10.576 6.40156 10.5181 6.54146 10.4149 6.6446C10.3118 6.74775 10.1719 6.8057 10.026 6.8057H8.772L8.552 7.9057H9.751C9.89687 7.9057 10.0368 7.96364 10.1399 8.06679C10.2431 8.16993 10.301 8.30983 10.301 8.4557C10.301 8.60156 10.2431 8.74146 10.1399 8.8446C10.0368 8.94775 9.89687 9.0057 9.751 9.0057H8.3331L8.0933 10.208C8.06054 10.3468 7.97517 10.4674 7.85518 10.5444C7.73519 10.6215 7.58997 10.6489 7.45015 10.621C7.31033 10.593 7.18683 10.5118 7.1057 10.3946C7.02458 10.2773 6.99217 10.1331 7.0153 9.9924L7.2111 9.0057H6.1309L5.89 10.208C5.87802 10.2808 5.85151 10.3505 5.81203 10.4129C5.77255 10.4753 5.72091 10.5291 5.66021 10.5711C5.5995 10.6131 5.53096 10.6424 5.45866 10.6574C5.38637 10.6723 5.31181 10.6726 5.23943 10.6581C5.16704 10.6436 5.09831 10.6147 5.03733 10.5731C4.97635 10.5315 4.92437 10.478 4.88448 10.4159C4.8446 10.3538 4.81762 10.2843 4.80517 10.2115C4.79272 10.1388 4.79504 10.0642 4.812 9.9924L5.01 9.0057H3.9782C3.83233 9.0057 3.69244 8.94775 3.58929 8.8446C3.48615 8.74146 3.4282 8.60156 3.4282 8.4557C3.4282 8.30983 3.48615 8.16993 3.58929 8.06679C3.69244 7.96364 3.83233 7.9057 3.9782 7.9057H5.2289L5.4489 6.8057H4.2499C4.10403 6.8057 3.96414 6.74775 3.86099 6.6446C3.75785 6.54146 3.6999 6.40156 3.6999 6.2557ZM7.4311 7.9057L7.6511 6.8057H6.5709L6.3509 7.9057H7.4311ZM2.5999 0.200195H11.4043C11.9878 0.200195 12.5474 0.43198 12.9599 0.84456C13.3725 1.25714 13.6043 1.81672 13.6043 2.4002V15.0513C13.6043 15.1972 13.5464 15.3371 13.4432 15.4402C13.3401 15.5433 13.2002 15.6013 13.0543 15.6013H1.4999C1.50019 15.8928 1.61622 16.1723 1.82247 16.3784C2.02873 16.5845 2.30835 16.7002 2.5999 16.7002H13.0543C13.2002 16.7002 13.3401 16.7581 13.4432 16.8613C13.5464 16.9644 13.6043 17.1043 13.6043 17.2502C13.6043 17.3961 13.5464 17.536 13.4432 17.6391C13.3401 17.7423 13.2002 17.8002 13.0543 17.8002H2.5999C2.01643 17.8002 1.45685 17.5684 1.04427 17.1558C0.631687 16.7432 0.399902 16.1837 0.399902 15.6002V2.4002C0.399902 1.81672 0.631687 1.25714 1.04427 0.84456C1.45685 0.43198 2.01643 0.200195 2.5999 0.200195ZM1.4999 14.5013H12.5043V2.4002C12.5043 2.10846 12.3884 1.82867 12.1821 1.62238C11.9758 1.41609 11.696 1.3002 11.4043 1.3002H2.5999C2.30816 1.3002 2.02838 1.41609 1.82209 1.62238C1.6158 1.82867 1.4999 2.10846 1.4999 2.4002V14.5013Z" fill="#1D1D1D" fill-opacity="0.4"/>
<path d="M5.81456 4.47104L5.81452 4.47103L5.81395 4.47383L5.58697 5.6057H4.2499C4.07751 5.6057 3.91218 5.67418 3.79028 5.79608C3.66838 5.91797 3.5999 6.0833 3.5999 6.2557C3.5999 6.42809 3.66838 6.59342 3.79028 6.71531C3.91218 6.83721 4.07751 6.9057 4.2499 6.9057H5.32692L5.14692 7.8057H3.9782C3.80581 7.8057 3.64048 7.87418 3.51858 7.99608C3.39668 8.11797 3.3282 8.28331 3.3282 8.4557C3.3282 8.62809 3.39668 8.79342 3.51858 8.91531C3.64048 9.03721 3.80581 9.1057 3.9782 9.1057H4.88794L4.71428 9.97113C4.6946 10.0555 4.69199 10.143 4.7066 10.2284C4.72132 10.3144 4.7532 10.3965 4.80033 10.4699C4.84747 10.5434 4.9089 10.6065 4.98097 10.6557C5.05304 10.7049 5.13427 10.739 5.21981 10.7561C5.30536 10.7732 5.39348 10.773 5.47891 10.7553C5.56435 10.7376 5.64535 10.7029 5.7171 10.6533C5.78885 10.6037 5.84987 10.5401 5.89652 10.4664C5.94286 10.3932 5.97409 10.3114 5.98838 10.226L6.21285 9.1057H7.08931L6.91722 9.97293L6.91716 9.97292L6.91663 9.97617C6.88928 10.1425 6.92759 10.3129 7.02347 10.4514C7.11934 10.59 7.26529 10.686 7.43054 10.719C7.59578 10.7521 7.76741 10.7196 7.90921 10.6286C8.05101 10.5375 8.15191 10.395 8.19063 10.231L8.19069 10.231L8.19137 10.2276L8.41513 9.1057H9.751C9.92339 9.1057 10.0887 9.03721 10.2106 8.91531C10.3325 8.79342 10.401 8.62809 10.401 8.4557C10.401 8.28331 10.3325 8.11797 10.2106 7.99608C10.0887 7.87418 9.92339 7.8057 9.751 7.8057H8.67398L8.85398 6.9057H10.026C10.1984 6.9057 10.3637 6.83721 10.4856 6.71531C10.6075 6.59342 10.676 6.42809 10.676 6.2557C10.676 6.0833 10.6075 5.91797 10.4856 5.79608C10.3637 5.67418 10.1984 5.6057 10.026 5.6057H9.11382L9.28808 4.72858L9.28816 4.7286L9.28878 4.7247C9.31499 4.55884 9.27599 4.38926 9.17995 4.25151C9.08391 4.11376 8.93829 4.01852 8.77359 3.98575C8.6089 3.95298 8.43791 3.98522 8.29646 4.07571C8.155 4.16621 8.05406 4.30794 8.01478 4.4712L8.0147 4.47119L8.01394 4.475L7.78801 5.6057H6.91385L7.08808 4.7297L7.08811 4.72971L7.08856 4.72714C7.11723 4.56036 7.07973 4.38897 6.98402 4.24941C6.88832 4.10985 6.74196 4.01311 6.57605 3.97976C6.41015 3.94641 6.23778 3.97907 6.09558 4.07081C5.95338 4.16255 5.85256 4.30614 5.81456 4.47104ZM6.47288 7.8057L6.65288 6.9057H7.52912L7.34912 7.8057H6.47288ZM11.4043 0.100195H2.5999C1.9899 0.100195 1.40489 0.342516 0.973557 0.77385C0.542223 1.20518 0.299902 1.7902 0.299902 2.4002V15.6002C0.299902 16.2102 0.542223 16.7952 0.973557 17.2265C1.40489 17.6579 1.9899 17.9002 2.5999 17.9002H13.0543C13.2267 17.9002 13.392 17.8317 13.5139 17.7098C13.6358 17.5879 13.7043 17.4226 13.7043 17.2502C13.7043 17.0778 13.6358 16.9125 13.5139 16.7906C13.392 16.6687 13.2267 16.6002 13.0543 16.6002H2.5999C2.33486 16.6002 2.08066 16.495 1.89315 16.3077C1.7294 16.1441 1.62821 15.9296 1.60502 15.7013H13.0543C13.2267 15.7013 13.392 15.6328 13.5139 15.5109C13.6358 15.389 13.7043 15.2237 13.7043 15.0513V2.4002C13.7043 1.7902 13.462 1.20518 13.0306 0.77385C12.5993 0.342516 12.0143 0.100195 11.4043 0.100195ZM12.4043 2.4002V14.4013H1.5999V2.4002C1.5999 2.13498 1.70526 1.88063 1.8928 1.69309C2.08033 1.50555 2.33469 1.4002 2.5999 1.4002H11.4043C11.6695 1.4002 11.9239 1.50555 12.1114 1.69309C12.2989 1.88062 12.4043 2.13498 12.4043 2.4002Z" stroke="#1D1D1D" stroke-opacity="0.4" stroke-width="0.2"/>
</svg>
