<svg width="39" height="38" viewBox="0 0 39 38" fill="none" xmlns="http://www.w3.org/2000/svg">
<circle cx="19.6963" cy="18.7393" r="18.7393" fill="#1D1D1D"/>
<g clip-path="url(#clip0_440_2772)">
<path d="M23.514 9.15072C23.4732 9.10513 22.0035 9.16872 20.7246 10.5569C19.4456 11.9438 19.6424 13.5347 19.6712 13.5755C19.7 13.6163 21.4948 13.6799 22.6406 12.0662C23.7864 10.4525 23.5548 9.19751 23.514 9.15072ZM27.4901 23.2276C27.4325 23.1124 24.7006 21.7471 24.955 19.122C25.2093 16.4957 26.9646 15.7758 26.9922 15.6979C27.0198 15.6199 26.2759 14.75 25.4877 14.3097C24.9089 13.9993 24.2684 13.8214 23.6124 13.789C23.4828 13.7854 23.0329 13.6751 22.1079 13.9282C21.4984 14.095 20.1247 14.6349 19.7468 14.6565C19.3676 14.6781 18.2398 14.0302 17.0269 13.8586C16.2506 13.7086 15.4276 14.0158 14.8385 14.2521C14.2506 14.4873 13.1324 15.1568 12.3502 16.936C11.5679 18.7141 11.977 21.5311 12.2698 22.407C12.5625 23.2816 13.0196 24.7153 13.7971 25.7615C14.4882 26.9421 15.4048 27.7615 15.7875 28.0399C16.1702 28.3182 17.25 28.503 17.9987 28.1203C18.601 27.7508 19.688 27.5384 20.1175 27.554C20.5458 27.5696 21.3904 27.7388 22.2555 28.2007C22.9405 28.437 23.5884 28.3386 24.2375 28.0747C24.8866 27.8095 25.826 26.8041 26.9226 24.7657C27.3389 23.8179 27.5285 23.3056 27.4901 23.2276Z" fill="white"/>
<path d="M23.514 9.15072C23.4732 9.10513 22.0035 9.16872 20.7246 10.5569C19.4456 11.9438 19.6424 13.5347 19.6712 13.5755C19.7 13.6163 21.4948 13.6799 22.6406 12.0662C23.7864 10.4525 23.5548 9.19751 23.514 9.15072ZM27.4901 23.2276C27.4325 23.1124 24.7006 21.7471 24.955 19.122C25.2093 16.4957 26.9646 15.7758 26.9922 15.6979C27.0198 15.6199 26.2759 14.75 25.4877 14.3097C24.9089 13.9993 24.2684 13.8214 23.6124 13.789C23.4828 13.7854 23.0329 13.6751 22.1079 13.9282C21.4984 14.095 20.1247 14.6349 19.7468 14.6565C19.3676 14.6781 18.2398 14.0302 17.0269 13.8586C16.2506 13.7086 15.4276 14.0158 14.8385 14.2521C14.2506 14.4873 13.1324 15.1568 12.3502 16.936C11.5679 18.7141 11.977 21.5311 12.2698 22.407C12.5625 23.2816 13.0196 24.7153 13.7971 25.7615C14.4882 26.9421 15.4048 27.7615 15.7875 28.0399C16.1702 28.3182 17.25 28.503 17.9987 28.1203C18.601 27.7508 19.688 27.5384 20.1175 27.554C20.5458 27.5696 21.3904 27.7388 22.2555 28.2007C22.9405 28.437 23.5884 28.3386 24.2375 28.0747C24.8866 27.8095 25.826 26.8041 26.9226 24.7657C27.3389 23.8179 27.5285 23.3056 27.4901 23.2276Z" fill="white"/>
</g>
<defs>
<clipPath id="clip0_440_2772">
<rect width="19.1963" height="19.1963" fill="white" transform="translate(10.0981 9.14111)"/>
</clipPath>
</defs>
</svg>
