<svg width="23" height="18" viewBox="0 0 23 18" fill="none" xmlns="http://www.w3.org/2000/svg">
<path d="M20.8438 7.34358H18.6875V13.0936H20.125C20.3156 13.0936 20.4984 13.1693 20.6332 13.3041C20.768 13.4389 20.8438 13.6217 20.8438 13.8123C20.8438 14.003 20.768 14.1858 20.6332 14.3206C20.4984 14.4554 20.3156 14.5311 20.125 14.5311H2.875C2.68438 14.5311 2.50156 14.4554 2.36677 14.3206C2.23198 14.1858 2.15625 14.003 2.15625 13.8123C2.15625 13.6217 2.23198 13.4389 2.36677 13.3041C2.50156 13.1693 2.68438 13.0936 2.875 13.0936H4.3125V7.34358H2.15625C2.00006 7.3433 1.84821 7.29215 1.72368 7.19787C1.59915 7.10359 1.50872 6.97131 1.46608 6.82105C1.42344 6.67079 1.43091 6.51073 1.48735 6.36509C1.54379 6.21946 1.64614 6.09617 1.77891 6.01389L11.1227 0.263891C11.2357 0.19292 11.3665 0.155273 11.5 0.155273C11.6335 0.155273 11.7643 0.19292 11.8773 0.263891L21.2211 6.01389C21.3539 6.09617 21.4562 6.21946 21.5126 6.36509C21.5691 6.51073 21.5766 6.67079 21.5339 6.82105C21.4913 6.97131 21.4008 7.10359 21.2763 7.19787C21.1518 7.29215 20.9999 7.3433 20.8438 7.34358ZM17.25 7.34358H14.375V13.0936H17.25V7.34358ZM10.0625 7.34358V13.0936H12.9375V7.34358H10.0625ZM5.75 13.0936H8.625V7.34358H5.75V13.0936ZM11.5 1.71936L4.69883 5.90608H18.3012L11.5 1.71936ZM0.71875 16.6873C0.71875 16.878 0.794476 17.0608 0.929266 17.1956C1.06406 17.3304 1.24688 17.4061 1.4375 17.4061H21.5625C21.7531 17.4061 21.9359 17.3304 22.0707 17.1956C22.2055 17.0608 22.2812 16.878 22.2812 16.6873C22.2812 16.4967 22.2055 16.3139 22.0707 16.1791C21.9359 16.0443 21.7531 15.9686 21.5625 15.9686H1.4375C1.24688 15.9686 1.06406 16.0443 0.929266 16.1791C0.794476 16.3139 0.71875 16.4967 0.71875 16.6873Z" fill="#1D1D1D" fill-opacity="0.4"/>
</svg>
