<svg width="20" height="20" viewBox="0 0 20 20" fill="none" xmlns="http://www.w3.org/2000/svg">
<g id="Iconsax/Linear/buildings" clip-path="url(#clip0_956_1505)">
<path id="Vector" d="M4.16675 6.66683C2.50008 6.66683 1.66675 7.50016 1.66675 9.16683V15.8335C1.66675 17.5002 2.50008 18.3335 4.16675 18.3335H10.8334C9.16675 18.3335 8.33341 17.5002 8.33341 15.8335V6.66683M4.16675 6.66683H8.33341M4.16675 6.66683V5.00016C4.16675 4.0835 4.91675 3.3335 5.83341 3.3335H8.42508C8.35841 3.5835 8.33341 3.8585 8.33341 4.16683V6.66683M11.6667 6.66683V10.8335M15.0001 6.66683V10.8335M5.00008 10.8335V14.1668M14.1667 14.1668H12.5001C12.0417 14.1668 11.6667 14.5418 11.6667 15.0002V18.3335H15.0001V15.0002C15.0001 14.5418 14.6251 14.1668 14.1667 14.1668Z" stroke="#1D1D1D" stroke-opacity="0.4" stroke-width="1.5" stroke-miterlimit="10" stroke-linecap="round" stroke-linejoin="round"/>
<path id="Vector_2" d="M8.33325 15.8332V4.1665C8.33325 2.49984 9.16659 1.6665 10.8333 1.6665H15.8333C17.4999 1.6665 18.3333 2.49984 18.3333 4.1665V15.8332C18.3333 17.4998 17.4999 18.3332 15.8333 18.3332H10.8333C9.16659 18.3332 8.33325 17.4998 8.33325 15.8332Z" stroke="#1D1D1D" stroke-opacity="0.4" stroke-width="1.5" stroke-miterlimit="10" stroke-linecap="round" stroke-linejoin="round"/>
</g>
<defs>
<clipPath id="clip0_956_1505">
<rect width="20" height="20" fill="white"/>
</clipPath>
</defs>
</svg>
