<svg width="20" height="20" viewBox="0 0 20 20" fill="none" xmlns="http://www.w3.org/2000/svg">
<g id="Iconsax/Linear/buildings2" clip-path="url(#clip0_956_1562)">
<path id="Vector" d="M5.58341 14.9998H3.45841C2.26675 14.9998 1.66675 14.3998 1.66675 13.2082V3.45817C1.66675 2.2665 2.26675 1.6665 3.45841 1.6665H7.04175C8.23341 1.6665 8.83341 2.2665 8.83341 3.45817V4.99984" stroke="#1D1D1D" stroke-opacity="0.4" stroke-width="1.5" stroke-miterlimit="10" stroke-linecap="round" stroke-linejoin="round"/>
<path id="Vector_2" d="M14.4749 7.01667V16.3167C14.4749 17.6583 13.8083 18.3333 12.4666 18.3333H7.59992C6.25825 18.3333 5.58325 17.6583 5.58325 16.3167V7.01667C5.58325 5.675 6.25825 5 7.59992 5H12.4666C13.8083 5 14.4749 5.675 14.4749 7.01667Z" stroke="#1D1D1D" stroke-opacity="0.4" stroke-width="1.5" stroke-miterlimit="10" stroke-linecap="round" stroke-linejoin="round"/>
<path id="Vector_3" d="M11.1666 4.99984V3.45817C11.1666 2.2665 11.7666 1.6665 12.9583 1.6665H16.5416C17.7333 1.6665 18.3333 2.2665 18.3333 3.45817V13.2082C18.3333 14.3998 17.7333 14.9998 16.5416 14.9998H14.4749M8.33325 9.1665H11.6666M8.33325 11.6665H11.6666M9.99992 18.3332V15.8332" stroke="#1D1D1D" stroke-opacity="0.4" stroke-width="1.5" stroke-miterlimit="10" stroke-linecap="round" stroke-linejoin="round"/>
</g>
<defs>
<clipPath id="clip0_956_1562">
<rect width="20" height="20" fill="white"/>
</clipPath>
</defs>
</svg>
