<svg width="20" height="20" viewBox="0 0 20 20" fill="none" xmlns="http://www.w3.org/2000/svg">
<g id="Iconsax/Linear/building" clip-path="url(#clip0_956_1570)">
<path id="Vector" d="M10.4166 18.3335H3.39993C2.43327 18.3335 1.6416 17.5585 1.6416 16.6085V4.2418C1.6416 2.05846 3.2666 1.06679 5.25827 2.04179L8.95827 3.85846C9.75827 4.25013 10.4166 5.29179 10.4166 6.17513V18.3335ZM10.4166 18.3335H15.6749C17.4749 18.3335 18.3083 17.5001 18.3083 15.7001V12.5501C18.3083 12.4918 18.3083 12.4418 18.2999 12.3918C18.2499 10.7918 17.3499 10.2251 16.2499 9.98346L14.5583 9.60846L10.8083 8.7668L10.4166 8.68346V18.3335ZM4.58327 7.50013H7.47493M4.58327 10.8335H7.47493" stroke="#1D1D1D" stroke-opacity="0.4" stroke-width="1.5" stroke-linecap="round" stroke-linejoin="round"/>
<path id="Vector_2" d="M14.5583 9.60827V12.2916M14.5583 9.60827L10.8083 8.7666V12.2916C10.8083 13.3249 11.65 14.1666 12.6833 14.1666C13.7167 14.1666 14.5583 13.3249 14.5583 12.2916M14.5583 9.60827L16.25 9.98327C17.35 10.2249 18.25 10.7916 18.3 12.3916C18.2747 12.87 18.0671 13.3205 17.7199 13.6506C17.3728 13.9807 16.9124 14.1654 16.4333 14.1666C15.4 14.1666 14.5583 13.3249 14.5583 12.2916" stroke="#1D1D1D" stroke-opacity="0.4" stroke-width="1.5" stroke-linecap="round" stroke-linejoin="round"/>
</g>
<defs>
<clipPath id="clip0_956_1570">
<rect width="20" height="20" fill="white"/>
</clipPath>
</defs>
</svg>
