<svg width="31" height="31" viewBox="0 0 31 31" fill="none" xmlns="http://www.w3.org/2000/svg">
<rect width="31" height="31" rx="7" fill="white" fill-opacity="0.1"/>
<g clip-path="url(#clip0_1501_126)">
<path fill-rule="evenodd" clip-rule="evenodd" d="M15.4509 7.88574H15.5491C17.187 7.88574 18.483 7.88574 19.4971 8.02103C20.5445 8.16128 21.3758 8.45595 22.0225 9.09912C22.6614 9.73378 22.9472 10.537 23.0834 11.55C23.2188 12.5466 23.2188 13.8251 23.2188 15.4635V15.5372C23.2188 17.1755 23.2188 18.4541 23.0842 19.45C22.9472 20.4643 22.6614 21.2669 22.0233 21.9015C21.3758 22.5447 20.5453 22.8394 19.4971 22.9796C18.483 23.1149 17.187 23.1149 15.5499 23.1149H15.4501C13.813 23.1149 12.517 23.1149 11.5029 22.9796C10.4547 22.8394 9.62425 22.5447 8.97746 21.9015C8.33858 21.2669 8.05279 20.4636 7.91663 19.4507C7.78125 18.4541 7.78125 17.1755 7.78125 15.5372V15.4635C7.78125 13.8251 7.78125 12.5466 7.91583 11.5507C8.05279 10.5363 8.33858 9.73378 8.97667 9.09912C9.62425 8.45595 10.4547 8.16128 11.5029 8.02103C12.517 7.88574 13.813 7.88574 15.4509 7.88574ZM11.6786 9.0722C10.7864 9.1912 10.256 9.41574 9.85938 9.80958C9.45563 10.2119 9.21812 10.763 9.09462 11.6782C8.96954 12.6032 8.96875 13.8173 8.96875 15.5003C8.96875 17.1833 8.96954 18.3974 9.09542 19.3225C9.21892 20.2377 9.45483 20.7887 9.85938 21.1911C10.256 21.5849 10.7864 21.8095 11.6786 21.9285C12.5946 22.051 13.8019 22.0524 15.5 22.0524C17.1981 22.0524 18.4054 22.051 19.3214 21.9285C20.2136 21.8095 20.744 21.5849 21.1398 21.1911C21.5452 20.7887 21.7811 20.2377 21.9054 19.3225C22.0305 18.3974 22.0313 17.1833 22.0313 15.5003C22.0313 13.8173 22.0305 12.6032 21.9046 11.6782C21.7811 10.763 21.5452 10.2119 21.1406 9.80958C20.744 9.41574 20.2136 9.1912 19.3214 9.0722C18.4054 8.94966 17.1981 8.94824 15.5 8.94824C13.8019 8.94824 12.5946 8.94966 11.6786 9.0722ZM13.0585 10.7191H17.9415C18.2423 10.7191 18.5036 10.7191 18.7316 10.7736C19.0335 10.846 19.3088 10.9881 19.5299 11.1858C19.751 11.3835 19.9101 11.6298 19.9911 11.8999C20.0529 12.1053 20.0529 12.3376 20.0521 12.6082V12.7265C20.0521 12.9957 20.0521 13.2294 19.9911 13.4334C19.9103 13.7036 19.7514 13.9499 19.5304 14.1477C19.3095 14.3455 19.0343 14.4879 18.7324 14.5604C18.5028 14.6156 18.2431 14.6156 17.9407 14.6149H13.0593C12.7585 14.6149 12.4972 14.6149 12.2692 14.5604C11.9673 14.488 11.6919 14.3459 11.4709 14.1482C11.2498 13.9505 11.0907 13.7042 11.0097 13.4341C10.9479 13.2287 10.9487 12.9964 10.9487 12.7258C10.9488 12.6864 10.9488 12.6469 10.9487 12.6075C10.9487 12.3383 10.9487 12.1046 11.0097 11.9006C11.0905 11.6304 11.2494 11.3841 11.4704 11.1863C11.6913 10.9884 11.9665 10.8461 12.2684 10.7736C12.498 10.7184 12.7577 10.7191 13.0601 10.7191H13.0585ZM13.125 11.7816C12.7189 11.7816 12.6318 11.7858 12.5756 11.8C12.475 11.8241 12.3833 11.8715 12.3096 11.9374C12.236 12.0033 12.183 12.0854 12.156 12.1754C12.1402 12.2257 12.1354 12.3029 12.1354 12.667C12.1354 13.0304 12.1402 13.1083 12.156 13.1586C12.183 13.2486 12.236 13.3306 12.3096 13.3965C12.3833 13.4624 12.475 13.5098 12.5756 13.534C12.6318 13.5482 12.7181 13.5524 13.125 13.5524H17.875C18.2811 13.5524 18.3682 13.5482 18.4244 13.534C18.525 13.5098 18.6167 13.4624 18.6904 13.3965C18.764 13.3306 18.817 13.2486 18.844 13.1586C18.8598 13.1083 18.8646 13.0311 18.8646 12.667C18.8646 12.3036 18.8598 12.2257 18.844 12.1754C18.817 12.0854 18.764 12.0033 18.6904 11.9374C18.6167 11.8715 18.525 11.8241 18.4244 11.8C18.3682 11.7858 18.2819 11.7816 17.875 11.7816H13.125Z" fill="#F8F8F8"/>
<path d="M13.1251 16.2083C13.1251 16.3962 13.0417 16.5764 12.8932 16.7092C12.7447 16.842 12.5434 16.9167 12.3334 16.9167C12.1235 16.9167 11.9221 16.842 11.7736 16.7092C11.6252 16.5764 11.5417 16.3962 11.5417 16.2083C11.5417 16.0205 11.6252 15.8403 11.7736 15.7075C11.9221 15.5746 12.1235 15.5 12.3334 15.5C12.5434 15.5 12.7447 15.5746 12.8932 15.7075C13.0417 15.8403 13.1251 16.0205 13.1251 16.2083ZM13.1251 19.0417C13.1251 19.2295 13.0417 19.4097 12.8932 19.5425C12.7447 19.6754 12.5434 19.75 12.3334 19.75C12.1235 19.75 11.9221 19.6754 11.7736 19.5425C11.6252 19.4097 11.5417 19.2295 11.5417 19.0417C11.5417 18.8538 11.6252 18.6736 11.7736 18.5408C11.9221 18.408 12.1235 18.3333 12.3334 18.3333C12.5434 18.3333 12.7447 18.408 12.8932 18.5408C13.0417 18.6736 13.1251 18.8538 13.1251 19.0417ZM16.2917 16.2083C16.2917 16.3962 16.2083 16.5764 16.0599 16.7092C15.9114 16.842 15.71 16.9167 15.5001 16.9167C15.2901 16.9167 15.0888 16.842 14.9403 16.7092C14.7918 16.5764 14.7084 16.3962 14.7084 16.2083C14.7084 16.0205 14.7918 15.8403 14.9403 15.7075C15.0888 15.5746 15.2901 15.5 15.5001 15.5C15.71 15.5 15.9114 15.5746 16.0599 15.7075C16.2083 15.8403 16.2917 16.0205 16.2917 16.2083ZM16.2917 19.0417C16.2917 19.2295 16.2083 19.4097 16.0599 19.5425C15.9114 19.6754 15.71 19.75 15.5001 19.75C15.2901 19.75 15.0888 19.6754 14.9403 19.5425C14.7918 19.4097 14.7084 19.2295 14.7084 19.0417C14.7084 18.8538 14.7918 18.6736 14.9403 18.5408C15.0888 18.408 15.2901 18.3333 15.5001 18.3333C15.71 18.3333 15.9114 18.408 16.0599 18.5408C16.2083 18.6736 16.2917 18.8538 16.2917 19.0417ZM19.4584 16.2083C19.4584 16.3962 19.375 16.5764 19.2265 16.7092C19.0781 16.842 18.8767 16.9167 18.6667 16.9167C18.4568 16.9167 18.2554 16.842 18.107 16.7092C17.9585 16.5764 17.8751 16.3962 17.8751 16.2083C17.8751 16.0205 17.9585 15.8403 18.107 15.7075C18.2554 15.5746 18.4568 15.5 18.6667 15.5C18.8767 15.5 19.0781 15.5746 19.2265 15.7075C19.375 15.8403 19.4584 16.0205 19.4584 16.2083ZM19.4584 19.0417C19.4584 19.2295 19.375 19.4097 19.2265 19.5425C19.0781 19.6754 18.8767 19.75 18.6667 19.75C18.4568 19.75 18.2554 19.6754 18.107 19.5425C17.9585 19.4097 17.8751 19.2295 17.8751 19.0417C17.8751 18.8538 17.9585 18.6736 18.107 18.5408C18.2554 18.408 18.4568 18.3333 18.6667 18.3333C18.8767 18.3333 19.0781 18.408 19.2265 18.5408C19.375 18.6736 19.4584 18.8538 19.4584 19.0417Z" fill="#F8F8F8"/>
</g>
<defs>
<clipPath id="clip0_1501_126">
<rect width="19" height="17" fill="white" transform="translate(6 7)"/>
</clipPath>
</defs>
</svg>
