<svg width="31" height="31" viewBox="0 0 31 31" fill="none" xmlns="http://www.w3.org/2000/svg">
<rect width="31" height="31" rx="7" fill="white" fill-opacity="0.1"/>
<path d="M17.875 6.89062C16.2221 6.89259 14.6375 7.55005 13.4688 8.7188C12.3001 9.88755 11.6426 11.4721 11.6406 13.125C11.6385 13.7205 11.7236 14.3131 11.893 14.884L7.74414 19.0254C7.57927 19.1942 7.48618 19.4203 7.48438 19.6562V22.625C7.48438 22.8612 7.57821 23.0877 7.74523 23.2548C7.91226 23.4218 8.13879 23.5156 8.375 23.5156H11.3438C11.58 23.5156 11.8065 23.4218 11.9735 23.2548C12.1405 23.0877 12.2344 22.8612 12.2344 22.625V21.7344H13.125C13.3612 21.7344 13.5877 21.6405 13.7548 21.4735C13.9218 21.3065 14.0156 21.08 14.0156 20.8438V19.9531H14.9062C15.1422 19.9513 15.3683 19.8582 15.5371 19.6934L16.116 19.107C16.6869 19.2764 17.2795 19.3615 17.875 19.3594C19.5285 19.3594 21.1142 18.7025 22.2834 17.5334C23.4525 16.3642 24.1094 14.7785 24.1094 13.125C24.1094 11.4715 23.4525 9.8858 22.2834 8.71663C21.1142 7.54746 19.5285 6.89063 17.875 6.89062ZM17.875 17.5781C17.3134 17.5795 16.7567 17.4737 16.2348 17.2664C16.0716 17.1961 15.8911 17.1762 15.7165 17.2092C15.5419 17.2423 15.3812 17.3268 15.2551 17.452L14.5352 18.1719H13.125C12.8888 18.1719 12.6623 18.2657 12.4952 18.4327C12.3282 18.5998 12.2344 18.8263 12.2344 19.0625V19.9531H11.3438C11.1075 19.9531 10.881 20.047 10.714 20.214C10.547 20.381 10.4531 20.6075 10.4531 20.8438V21.7344H9.26562V20.0273L13.548 15.7449C13.6732 15.6188 13.7577 15.4581 13.7908 15.2835C13.8238 15.1089 13.8039 14.9284 13.7336 14.7652C13.3828 13.8798 13.3251 12.9053 13.569 11.9847C13.8128 11.0641 14.3454 10.246 15.0885 9.65033C15.8316 9.0547 16.7461 8.71298 17.6977 8.67535C18.6493 8.63772 19.5879 8.90615 20.3757 9.44124C21.1635 9.97633 21.759 10.7499 22.0748 11.6484C22.3906 12.5468 22.41 13.5229 22.1303 14.4332C21.8505 15.3435 21.2863 16.1402 20.5204 16.7062C19.7545 17.2722 18.8273 17.5778 17.875 17.5781ZM20.5469 11.6406C20.5469 11.8755 20.4772 12.1051 20.3467 12.3004C20.2163 12.4956 20.0308 12.6479 19.8138 12.7377C19.5968 12.8276 19.3581 12.8511 19.1277 12.8053C18.8974 12.7595 18.6858 12.6464 18.5197 12.4803C18.3536 12.3142 18.2405 12.1026 18.1947 11.8723C18.1489 11.6419 18.1724 11.4032 18.2623 11.1862C18.3521 10.9692 18.5044 10.7837 18.6996 10.6533C18.8949 10.5228 19.1245 10.4531 19.3594 10.4531C19.6743 10.4531 19.9764 10.5782 20.1991 10.8009C20.4218 11.0236 20.5469 11.3257 20.5469 11.6406Z" fill="white" fill-opacity="0.7"/>
</svg>
