<svg width="20" height="20" viewBox="0 0 20 20" fill="none" xmlns="http://www.w3.org/2000/svg">
<path d="M16.4168 2.66683H14.5835V1.75016C14.5835 1.50705 14.4869 1.27389 14.315 1.10198C14.1431 0.930073 13.9099 0.833496 13.6668 0.833496C13.4237 0.833496 13.1906 0.930073 13.0186 1.10198C12.8467 1.27389 12.7502 1.50705 12.7502 1.75016V2.66683H7.25016V1.75016C7.25016 1.50705 7.15359 1.27389 6.98168 1.10198C6.80977 0.930073 6.57661 0.833496 6.3335 0.833496C6.09038 0.833496 5.85722 0.930073 5.68532 1.10198C5.51341 1.27389 5.41683 1.50705 5.41683 1.75016V2.66683H3.5835C2.85415 2.66683 2.15468 2.95656 1.63895 3.47229C1.12323 3.98801 0.833496 4.68748 0.833496 5.41683V16.4168C0.833496 17.1462 1.12323 17.8456 1.63895 18.3614C2.15468 18.8771 2.85415 19.1668 3.5835 19.1668H16.4168C17.1462 19.1668 17.8456 18.8771 18.3614 18.3614C18.8771 17.8456 19.1668 17.1462 19.1668 16.4168V5.41683C19.1668 4.68748 18.8771 3.98801 18.3614 3.47229C17.8456 2.95656 17.1462 2.66683 16.4168 2.66683ZM17.3335 16.4168C17.3335 16.6599 17.2369 16.8931 17.065 17.065C16.8931 17.2369 16.6599 17.3335 16.4168 17.3335H3.5835C3.34038 17.3335 3.10722 17.2369 2.93532 17.065C2.76341 16.8931 2.66683 16.6599 2.66683 16.4168V10.0002H17.3335V16.4168ZM17.3335 8.16683H2.66683V5.41683C2.66683 5.17371 2.76341 4.94056 2.93532 4.76865C3.10722 4.59674 3.34038 4.50016 3.5835 4.50016H5.41683V5.41683C5.41683 5.65994 5.51341 5.8931 5.68532 6.06501C5.85722 6.23692 6.09038 6.3335 6.3335 6.3335C6.57661 6.3335 6.80977 6.23692 6.98168 6.06501C7.15359 5.8931 7.25016 5.65994 7.25016 5.41683V4.50016H12.7502V5.41683C12.7502 5.65994 12.8467 5.8931 13.0186 6.06501C13.1906 6.23692 13.4237 6.3335 13.6668 6.3335C13.9099 6.3335 14.1431 6.23692 14.315 6.06501C14.4869 5.8931 14.5835 5.65994 14.5835 5.41683V4.50016H16.4168C16.6599 4.50016 16.8931 4.59674 17.065 4.76865C17.2369 4.94056 17.3335 5.17371 17.3335 5.41683V8.16683Z" fill="#1D1D1D" fill-opacity="0.4"/>
</svg>
