<svg width="38" height="38" viewBox="0 0 38 38" fill="none" xmlns="http://www.w3.org/2000/svg">
<circle cx="18.7393" cy="18.7393" r="18.7393" fill="#FB4B56"/>
<path d="M27.7608 17.5809H19.3751V21.0275H24.1656C23.959 22.1416 23.3324 23.0839 22.3877 23.7152C21.5893 24.249 20.5704 24.5647 19.3728 24.5647C17.0541 24.5647 15.0929 22.998 14.3919 20.8929C14.2155 20.3591 14.1134 19.7881 14.1134 19.2009C14.1134 18.6137 14.2155 18.0427 14.3919 17.5089C15.0952 15.4061 17.0564 13.8394 19.3751 13.8394C20.6818 13.8394 21.8539 14.2897 22.7777 15.1717L25.3307 12.6163C23.7873 11.1773 21.775 10.2953 19.3751 10.2953C15.8959 10.2953 12.8856 12.2913 11.4211 15.2018C10.8176 16.4041 10.4741 17.7642 10.4741 19.2032C10.4741 20.6422 10.8176 22 11.4211 23.2023C12.8856 26.1128 15.8959 28.1088 19.3751 28.1088C21.7796 28.1088 23.7942 27.3104 25.2657 25.9503C26.9485 24.3999 27.921 22.1161 27.921 19.4028C27.921 18.7715 27.8652 18.1657 27.7608 17.5809Z" fill="white"/>
</svg>
