<svg width="31" height="31" viewBox="0 0 31 31" fill="none" xmlns="http://www.w3.org/2000/svg">
<rect width="31" height="31" rx="7" fill="white" fill-opacity="0.1"/>
<path d="M15.5001 25.0835C10.2101 25.0778 5.9225 20.7902 5.91675 15.5002V15.3085C6.02216 10.0425 10.3586 5.84785 15.6247 5.91685C20.8926 5.98777 25.116 10.2955 25.0815 15.5625C25.047 20.8304 20.768 25.0835 15.5001 25.0835ZM15.4847 23.1669H15.5001C17.5327 23.1648 19.4814 22.3557 20.9176 20.9173C22.3539 19.4789 23.1601 17.529 23.1591 15.4964C23.1581 13.4637 22.3499 11.5146 20.9122 10.0777C19.4745 8.64073 17.5251 7.83353 15.4924 7.83353C13.4598 7.83353 11.5103 8.64073 10.0726 10.0777C8.63495 11.5146 7.82677 13.4637 7.82575 15.4964C7.82473 17.529 8.63097 19.4789 10.0672 20.9173C11.5034 22.3557 13.4521 23.1648 15.4847 23.1669ZM16.4584 21.2502H14.5417V19.3335H16.4584V21.2502ZM16.4584 18.3752H14.5417C14.5269 17.7623 14.6763 17.1567 14.9746 16.6211C15.2729 16.0856 15.7091 15.6396 16.238 15.3296C16.8705 14.8447 17.4167 14.4269 17.4167 13.5835C17.4167 13.0752 17.2148 12.5877 16.8554 12.2282C16.4959 11.8688 16.0084 11.6669 15.5001 11.6669C14.9918 11.6669 14.5042 11.8688 14.1448 12.2282C13.7853 12.5877 13.5834 13.0752 13.5834 13.5835H11.6667V13.4973C11.6782 12.4806 12.093 11.5101 12.82 10.7993C13.547 10.0885 14.5265 9.69563 15.5432 9.70706C16.5599 9.7185 17.5304 10.1333 18.2412 10.8603C18.952 11.5873 19.3449 12.5669 19.3334 13.5835C19.2996 14.0935 19.1467 14.5884 18.8871 15.0285C18.6275 15.4687 18.2683 15.842 17.8384 16.1183C17.4497 16.3623 17.1228 16.6931 16.8834 17.0847C16.6439 17.4762 16.4985 17.918 16.4584 18.3752Z" fill="white" fill-opacity="0.7"/>
</svg>
