<svg width="31" height="31" viewBox="0 0 31 31" fill="none" xmlns="http://www.w3.org/2000/svg">
<rect width="31" height="31" rx="7" fill="white" fill-opacity="0.1"/>
<path d="M23.4167 8.0625H7.58333C6.7092 8.0625 6 8.77637 6 9.65625V21.3438C6 22.2236 6.7092 22.9375 7.58333 22.9375H23.4167C24.2908 22.9375 25 22.2236 25 21.3438V9.65625C25 8.77637 24.2908 8.0625 23.4167 8.0625ZM23.4167 21.3438H16.0014C16.0311 21.1943 16.0278 21.4633 16.0278 20.6C16.0278 19.5441 15.0349 18.6875 13.8111 18.6875C13.4549 18.6875 13.1943 18.9531 12.3333 18.9531C11.446 18.9531 11.2316 18.6875 10.8556 18.6875C9.63177 18.6875 8.63889 19.5441 8.63889 20.6C8.63889 21.4633 8.63229 21.1943 8.66528 21.3438H7.58333V11.7812H23.4167V21.3438ZM17.875 18.6875H21.5694C21.7146 18.6875 21.8333 18.568 21.8333 18.4219V17.8906C21.8333 17.7445 21.7146 17.625 21.5694 17.625H17.875C17.7299 17.625 17.6111 17.7445 17.6111 17.8906V18.4219C17.6111 18.568 17.7299 18.6875 17.875 18.6875ZM17.875 16.5625H21.5694C21.7146 16.5625 21.8333 16.443 21.8333 16.2969V15.7656C21.8333 15.6195 21.7146 15.5 21.5694 15.5H17.875C17.7299 15.5 17.6111 15.6195 17.6111 15.7656V16.2969C17.6111 16.443 17.7299 16.5625 17.875 16.5625ZM17.875 14.4375H21.5694C21.7146 14.4375 21.8333 14.318 21.8333 14.1719V13.6406C21.8333 13.4945 21.7146 13.375 21.5694 13.375H17.875C17.7299 13.375 17.6111 13.4945 17.6111 13.6406V14.1719C17.6111 14.318 17.7299 14.4375 17.875 14.4375ZM12.3333 17.625C13.4977 17.625 14.4444 16.6721 14.4444 15.5C14.4444 14.3279 13.4977 13.375 12.3333 13.375C11.1689 13.375 10.2222 14.3279 10.2222 15.5C10.2222 16.6721 11.1689 17.625 12.3333 17.625Z" fill="white" fill-opacity="0.7"/>
</svg>
