<svg width="21" height="15" viewBox="0 0 21 15" fill="none" xmlns="http://www.w3.org/2000/svg">
<path d="M13.4727 9.1881L17.5018 13.2228H3.56235L7.46454 9.18683L7.54143 9.1073L7.46184 9.03048L6.62184 8.21964L6.54237 8.14293L6.46561 8.22235L2.44394 12.3833V2.81926L9.50628 9.84751L9.50633 9.84755C9.74563 10.0854 10.0693 10.219 10.4067 10.219C10.7442 10.219 11.0679 10.0854 11.3072 9.84755L11.3072 9.84754L18.5562 2.6383V12.314L14.4516 8.20935L14.3734 8.13119L14.2953 8.20935L13.4728 9.03185L13.3947 9.10995L13.4727 9.1881ZM18.6667 0.389474H2.33341C1.99468 0.389474 1.66982 0.524035 1.4303 0.763555C1.19078 1.00307 1.05622 1.32793 1.05622 1.66667V13.3333C1.05622 13.6721 1.19078 13.9969 1.4303 14.2364C1.66982 14.476 1.99468 14.6105 2.33341 14.6105H18.6667C19.0055 14.6105 19.3303 14.476 19.5699 14.2364C19.8094 13.9969 19.9439 13.6721 19.9439 13.3333V1.66667C19.9439 1.32793 19.8094 1.00308 19.5699 0.763555C19.3303 0.524035 19.0055 0.389474 18.6667 0.389474ZM10.4068 8.78493L3.36532 1.77719H17.4539L10.4068 8.78493Z" fill="#2B1772" stroke="#2B1772" stroke-width="0.221053"/>
</svg>
