<svg width="19" height="19" viewBox="0 0 19 19" fill="none" xmlns="http://www.w3.org/2000/svg">
<path fill-rule="evenodd" clip-rule="evenodd" d="M9.52082 0.125C7.16821 0.125 5.02446 0.902084 3.75623 1.53698C3.64165 1.59427 3.53488 1.65052 3.4354 1.70469C3.23853 1.81198 3.07082 1.91198 2.93748 2L4.38019 4.12396L5.05936 4.39427C7.71353 5.73333 11.2729 5.73333 13.9276 4.39427L14.6984 3.99427L16.063 2C15.7803 1.81562 15.4863 1.64915 15.1828 1.50156C13.9213 0.873437 11.8292 0.125 9.52082 0.125ZM6.16509 2.52917C5.65421 2.43357 5.14963 2.30694 4.65415 2.15C5.84217 1.6224 7.613 1.0625 9.5203 1.0625C10.8417 1.0625 12.0911 1.33125 13.1245 1.67188C11.9135 1.84219 10.6213 2.13125 9.39009 2.48698C8.42134 2.76719 7.28905 2.73698 6.16509 2.52917ZM14.4776 5.16667L14.35 5.23125C11.4297 6.70417 7.55675 6.70417 4.63644 5.23125L4.51561 5.16979C0.129151 9.98281 -3.21981 18.8734 9.52082 18.8734C22.2604 18.8734 18.8297 9.81667 14.4776 5.16667ZM8.97915 9.5C8.70288 9.5 8.43793 9.60975 8.24258 9.8051C8.04723 10.0004 7.93748 10.2654 7.93748 10.5417C7.93748 10.8179 8.04723 11.0829 8.24258 11.2782C8.43793 11.4736 8.70288 11.5833 8.97915 11.5833V9.5ZM10.0208 8.45833V7.9375H8.97915V8.45833C8.42662 8.45833 7.89671 8.67783 7.50601 9.06853C7.11531 9.45923 6.89582 9.98913 6.89582 10.5417C6.89582 11.0942 7.11531 11.6241 7.50601 12.0148C7.89671 12.4055 8.42662 12.625 8.97915 12.625V14.7083C8.76373 14.7084 8.55359 14.6416 8.37767 14.5173C8.20175 14.393 8.0687 14.2172 7.99686 14.0141C7.95086 13.8838 7.855 13.7772 7.73037 13.7176C7.60573 13.658 7.46254 13.6504 7.33228 13.6964C7.20202 13.7424 7.09536 13.8382 7.03578 13.9628C6.9762 14.0875 6.96857 14.2307 7.01457 14.3609C7.15823 14.7672 7.4243 15.1189 7.77613 15.3676C8.12796 15.6164 8.54826 15.75 8.97915 15.75V16.2708H10.0208V15.75C10.5734 15.75 11.1033 15.5305 11.494 15.1398C11.8847 14.7491 12.1042 14.2192 12.1042 13.6667C12.1042 13.1141 11.8847 12.5842 11.494 12.1935C11.1033 11.8028 10.5734 11.5833 10.0208 11.5833V9.5C10.4739 9.5 10.8599 9.78906 11.0036 10.1943C11.025 10.2606 11.0594 10.3219 11.1048 10.3747C11.1503 10.4274 11.2058 10.4706 11.2682 10.5015C11.3306 10.5324 11.3986 10.5505 11.4681 10.5547C11.5376 10.5588 11.6073 10.549 11.6729 10.5258C11.7386 10.5026 11.799 10.4665 11.8504 10.4196C11.9019 10.3727 11.9434 10.3159 11.9725 10.2526C12.0016 10.1894 12.0178 10.1209 12.02 10.0513C12.0222 9.98172 12.0105 9.91237 11.9854 9.84739C11.8417 9.44116 11.5757 9.08945 11.2238 8.84068C10.872 8.59192 10.4517 8.45834 10.0208 8.45833ZM10.0208 12.625V14.7083C10.2971 14.7083 10.562 14.5986 10.7574 14.4032C10.9527 14.2079 11.0625 13.9429 11.0625 13.6667C11.0625 13.3904 10.9527 13.1254 10.7574 12.9301C10.562 12.7347 10.2971 12.625 10.0208 12.625Z" fill="#1D1D1D" fill-opacity="0.4"/>
</svg>
