<svg fill="none" height="21" viewBox="0 0 17 21" width="17" xmlns="http://www.w3.org/2000/svg">
    <path
        d="M8.49992 0.916748C5.85779 0.916748 3.70825 3.06629 3.70825 5.70842V7.62508H2.74992C1.69288 7.62508 0.833252 8.48471 0.833252 9.54175V18.1667C0.833252 19.2238 1.69288 20.0834 2.74992 20.0834H14.2499C15.307 20.0834 16.1666 19.2238 16.1666 18.1667V9.54175C16.1666 8.48471 15.307 7.62508 14.2499 7.62508H13.2916V5.70842C13.2916 3.06629 11.142 0.916748 8.49992 0.916748ZM5.62492 5.70842C5.62492 4.12333 6.91484 2.83341 8.49992 2.83341C10.085 2.83341 11.3749 4.12333 11.3749 5.70842V7.62508H5.62492V5.70842ZM14.2518 18.1667H9.45825V15.9837C10.0285 15.6511 10.4166 15.0397 10.4166 14.3334C10.4166 13.2764 9.55696 12.4167 8.49992 12.4167C7.44288 12.4167 6.58325 13.2764 6.58325 14.3334C6.58325 15.0387 6.97138 15.6511 7.54159 15.9837V18.1667H2.74992V9.54175H14.2499L14.2518 18.1667Z"
        fill="#2B1772" stroke="#2B1772" stroke-width="0.221053" />
</svg>
