<svg width="21" height="15" viewBox="0 0 21 15" fill="none" xmlns="http://www.w3.org/2000/svg">
<path d="M13.9914 9.55361C13.828 9.55361 13.6713 9.61851 13.5558 9.73405C13.4402 9.84958 13.3753 10.0063 13.3753 10.1697C13.3753 10.3331 13.4402 10.4898 13.5558 10.6053C13.6713 10.7208 13.828 10.7857 13.9914 10.7857H16.8664C17.0298 10.7857 17.1865 10.7208 17.302 10.6053C17.4176 10.4898 17.4825 10.3331 17.4825 10.1697C17.4825 10.0063 17.4176 9.84958 17.302 9.73405C17.1865 9.61851 17.0298 9.55361 16.8664 9.55361H13.9914ZM0.646484 3.18753C0.646484 2.37057 0.971021 1.58707 1.5487 1.00939C2.12638 0.431714 2.90988 0.107178 3.72684 0.107178H17.2771C18.0941 0.107178 18.8776 0.431714 19.4553 1.00939C20.0329 1.58707 20.3575 2.37057 20.3575 3.18753V11.8125C20.3575 12.6295 20.0329 13.413 19.4553 13.9907C18.8776 14.5684 18.0941 14.8929 17.2771 14.8929H3.72766C2.9107 14.8929 2.1272 14.5684 1.54952 13.9907C0.971843 13.413 0.647306 12.6295 0.647306 11.8125V3.18753H0.646484ZM3.72684 1.33932C3.23666 1.33932 2.76656 1.53404 2.41996 1.88065C2.07335 2.22726 1.87863 2.69736 1.87863 3.18753V3.80361H19.1253V3.18753C19.1253 2.69736 18.9306 2.22726 18.584 1.88065C18.2374 1.53404 17.7673 1.33932 17.2771 1.33932H3.72684ZM1.87863 11.8125C1.87863 12.3027 2.07335 12.7728 2.41996 13.1194C2.76656 13.466 3.23666 13.6607 3.72684 13.6607H17.2771C17.7673 13.6607 18.2374 13.466 18.584 13.1194C18.9306 12.7728 19.1253 12.3027 19.1253 11.8125V5.03575H1.87945V11.8125H1.87863Z" fill="#1D1D1D" fill-opacity="0.4"/>
</svg>
