<svg width="19" height="19" viewBox="0 0 19 19" fill="none" xmlns="http://www.w3.org/2000/svg">
<path d="M14.6352 18.7045C14.4577 18.704 14.2808 18.6846 14.1074 18.6465C10.807 17.9637 7.76651 16.363 5.33577 14.0284C2.9569 11.6887 1.30703 8.70978 0.585769 5.45202C0.500723 5.04601 0.521597 4.62494 0.646381 4.22933C0.771165 3.83372 0.995661 3.47688 1.29827 3.19314L3.40938 1.16119C3.51721 1.05922 3.64533 0.981129 3.78538 0.932021C3.92543 0.882913 4.07426 0.863889 4.22216 0.876192C4.37551 0.89219 4.5235 0.94159 4.65571 1.02092C4.78792 1.10025 4.90115 1.20758 4.98744 1.33536L7.62632 5.23564C7.72528 5.38697 7.77305 5.56608 7.7626 5.7466C7.75215 5.92711 7.68403 6.09951 7.56827 6.23841L6.24355 7.82175C6.77114 8.98943 7.51831 10.0448 8.44438 10.9304C9.36445 11.8481 10.452 12.5808 11.648 13.089L13.2894 11.7854C13.4272 11.6764 13.595 11.612 13.7703 11.6007C13.9457 11.5894 14.1203 11.6317 14.271 11.722L18.2558 14.2976C18.3925 14.3792 18.509 14.4908 18.5965 14.6238C18.684 14.7569 18.7403 14.908 18.7611 15.0659C18.782 15.2238 18.7668 15.3844 18.7167 15.5356C18.6667 15.6868 18.5831 15.8247 18.4722 15.939L16.4138 17.9762C16.18 18.2089 15.9025 18.393 15.5973 18.518C15.292 18.643 14.9651 18.7064 14.6352 18.7045ZM4.13771 1.92119L2.0266 3.95314C1.85637 4.11176 1.73035 4.31196 1.66095 4.53405C1.59155 4.75614 1.58115 4.99247 1.63077 5.2198C2.30143 8.27676 3.84306 11.0741 6.06938 13.2737C8.35687 15.4701 11.2182 16.9757 14.3238 17.6173C14.5589 17.6664 14.8025 17.6565 15.0328 17.5883C15.2631 17.5202 15.4728 17.3959 15.6433 17.2267L17.7016 15.1895L13.8541 12.7037L12.0913 14.1076C12.0238 14.161 11.9443 14.1971 11.8597 14.2127C11.7751 14.2284 11.6879 14.2231 11.6058 14.1973C10.1421 13.658 8.81565 12.802 7.72132 11.6904C6.58943 10.6333 5.71082 9.33436 5.15105 7.89036C5.12737 7.80294 5.12658 7.7109 5.14876 7.62309C5.17095 7.53528 5.21535 7.45465 5.27771 7.38897L6.70271 5.68425L4.13771 1.92119Z" fill="#1D1D1D" fill-opacity="0.4"/>
<path d="M5.2665 14.1005L5.26564 14.0997C2.873 11.7465 1.21357 8.75027 0.488133 5.47364L0.487886 5.47253L0.487893 5.47253C0.399329 5.04972 0.421066 4.61123 0.551013 4.19925C0.680893 3.78748 0.914503 3.41605 1.22939 3.12064L3.34003 1.08914L3.34067 1.08853L3.34067 1.08854C3.45871 0.976902 3.59897 0.891415 3.75229 0.837654C3.90561 0.783894 4.06854 0.763068 4.23045 0.776536L4.23254 0.77671L4.23253 0.776731C4.40042 0.794246 4.56242 0.848326 4.70716 0.935169C4.8519 1.02201 4.97585 1.13951 5.07031 1.2794L7.70915 5.1796L7.71003 5.1809L7.71002 5.18091C7.8207 5.35017 7.87412 5.55048 7.86244 5.75238C7.85075 5.95427 7.77456 6.14708 7.64509 6.30244L7.64497 6.30258L6.36066 7.83761C6.88141 8.97095 7.61179 9.99581 8.51349 10.8581L8.51501 10.8595L8.515 10.8596C9.41201 11.7542 10.4697 12.4714 11.6325 12.9736L13.2272 11.7071L13.2274 11.7069C13.3812 11.5854 13.5683 11.5135 13.7639 11.5009C13.9595 11.4883 14.1543 11.5355 14.3225 11.6363L14.3254 11.638L14.3253 11.638L18.3086 14.2126C18.4576 14.3019 18.5846 14.4237 18.6801 14.5689C18.7759 14.7145 18.8375 14.88 18.8603 15.0528C18.8831 15.2257 18.8664 15.4015 18.8117 15.567C18.7569 15.7325 18.6653 15.8835 18.5439 16.0086L18.5425 16.0101L18.5425 16.01L16.4844 18.0471C16.2412 18.289 15.9526 18.4805 15.6351 18.6105C15.3178 18.7405 14.9779 18.8064 14.6349 18.8045C14.6348 18.8045 14.6347 18.8045 14.6347 18.8045L14.6352 18.7045C14.4577 18.704 14.2808 18.6846 14.1074 18.6465L5.2665 14.1005ZM5.2665 14.1005C7.71067 16.448 10.768 18.0577 14.0866 18.7443L5.2665 14.1005ZM2.09595 4.02518L4.12176 2.07534L6.57751 5.67811L5.20293 7.32251C5.12994 7.4002 5.07793 7.49521 5.05181 7.59859C5.02542 7.70304 5.02636 7.81252 5.05453 7.91651L5.05399 7.91665L5.05781 7.9265C5.62277 9.38389 6.50938 10.695 7.65154 11.762C8.75592 12.8834 10.0943 13.747 11.5712 14.2911L11.5712 14.2912L11.5758 14.2927C11.6735 14.3234 11.7772 14.3297 11.8779 14.3111C11.9785 14.2925 12.0731 14.2495 12.1534 14.186L12.1536 14.1858L13.8602 12.8267L17.5428 15.206L15.5729 17.1557L15.5728 17.1558C15.4141 17.3133 15.2188 17.429 15.0044 17.4924C14.79 17.5559 14.5632 17.5652 14.3443 17.5194L14.3441 17.5194C11.2571 16.8817 8.41295 15.3851 6.13912 13.202C3.92684 11.0161 2.39491 8.23622 1.72845 5.19837L1.63077 5.2198L1.72847 5.19848C1.68255 4.98811 1.69217 4.7694 1.7564 4.56388C1.82062 4.35836 1.93724 4.17309 2.09477 4.0263L2.09478 4.02631L2.09595 4.02518Z" stroke="#1D1D1D" stroke-opacity="0.4" stroke-width="0.2"/>
</svg>
