<svg width="16" height="20" viewBox="0 0 16 20" fill="none" xmlns="http://www.w3.org/2000/svg">
<path d="M13.4999 3.10679C12.0412 1.6481 10.0628 0.828613 7.99985 0.828613C5.93695 0.828613 3.95854 1.6481 2.49985 3.10679C1.04116 4.56548 0.22168 6.54389 0.22168 8.60679C0.22168 10.6697 1.04116 12.6481 2.49985 14.1068L7.33069 18.9468C7.4159 19.0327 7.51729 19.1009 7.62899 19.1474C7.7407 19.194 7.86051 19.2179 7.98152 19.2179C8.10253 19.2179 8.22234 19.194 8.33405 19.1474C8.44575 19.1009 8.54714 19.0327 8.63235 18.9468L13.4999 14.061C14.9525 12.6083 15.7685 10.6382 15.7685 8.58387C15.7685 6.52957 14.9525 4.55941 13.4999 3.10679ZM12.189 12.7501L7.99985 16.9576L3.81069 12.7501C2.98307 11.9217 2.41962 10.8666 2.19157 9.71805C1.96352 8.56951 2.08111 7.37914 2.52947 6.29741C2.97782 5.21568 3.73682 4.29117 4.71052 3.64073C5.68421 2.99028 6.82889 2.64312 7.99985 2.64312C9.17082 2.64312 10.3155 2.99028 11.2892 3.64073C12.2629 4.29117 13.0219 5.21568 13.4702 6.29741C13.9186 7.37914 14.0362 8.56951 13.8081 9.71805C13.5801 10.8666 13.0166 11.9217 12.189 12.7501ZM5.24985 5.79262C4.50984 6.53491 4.0943 7.54031 4.0943 8.58845C4.0943 9.6366 4.50984 10.642 5.24985 11.3843C5.79964 11.935 6.49981 12.3111 7.26253 12.4654C8.02526 12.6197 8.81656 12.5453 9.53717 12.2516C10.2578 11.9579 10.8756 11.4579 11.3131 10.8144C11.7507 10.1708 11.9884 9.41242 11.9965 8.63429C12.0007 8.11473 11.9006 7.59961 11.7022 7.11939C11.5038 6.63918 11.2111 6.20361 10.8415 5.83845C10.4782 5.46682 10.045 5.1707 9.56682 4.96713C9.08864 4.76357 8.57492 4.65657 8.05522 4.65231C7.53553 4.64805 7.02012 4.74661 6.53866 4.94231C6.0572 5.13801 5.6192 5.42699 5.24985 5.79262ZM9.54902 10.0826C9.20164 10.4353 8.74255 10.6564 8.25022 10.708C7.75789 10.7597 7.26291 10.6387 6.8499 10.3658C6.43689 10.0929 6.1315 9.68501 5.98594 9.21186C5.84039 8.73872 5.8637 8.22971 6.0519 7.77185C6.2401 7.31399 6.5815 6.93572 7.01772 6.70171C7.45395 6.46771 7.95792 6.3925 8.44346 6.48894C8.92901 6.58538 9.36597 6.84748 9.67966 7.23044C9.99334 7.6134 10.1643 8.09343 10.1632 8.58845C10.1499 9.15429 9.91247 9.69169 9.50319 10.0826H9.54902Z" fill="#1D1D1D" fill-opacity="0.4"/>
</svg>
