<svg width="31" height="31" viewBox="0 0 31 31" fill="none" xmlns="http://www.w3.org/2000/svg">
<rect width="31" height="31" rx="7" fill="white" fill-opacity="0.1"/>
<path d="M15.5 7.79125L21.625 10.5125V14.625C21.625 18.58 19.0175 22.2288 15.5 23.3138C11.9825 22.2288 9.375 18.58 9.375 14.625V10.5125L15.5 7.79125ZM15.5 5.875L7.625 9.375V14.625C7.625 19.4812 10.985 24.0225 15.5 25.125C20.015 24.0225 23.375 19.4812 23.375 14.625V9.375L15.5 5.875ZM14.625 11.125H16.375V12.875H14.625V11.125ZM14.625 14.625H16.375V19.875H14.625V14.625Z" fill="white" fill-opacity="0.7"/>
<path d="M15.5406 5.78362L15.5 5.76557L15.4594 5.78362L7.58439 9.28362L7.525 9.31001V9.375V14.625C7.525 19.5232 10.9126 24.1078 15.4763 25.2221L15.5 25.2279L15.5237 25.2221C20.0874 24.1078 23.475 19.5232 23.475 14.625V9.375V9.31001L23.4156 9.28362L15.5406 5.78362ZM14.625 11.025H14.525V11.125V12.875V12.975H14.625H16.375H16.475V12.875V11.125V11.025H16.375H14.625ZM14.625 14.525H14.525V14.625V19.875V19.975H14.625H16.375H16.475V19.875V14.625V14.525H16.375H14.625ZM9.475 10.5775L15.5 7.90068L21.525 10.5775V14.625C21.525 18.5284 18.9576 22.1266 15.5 23.209C12.0424 22.1266 9.475 18.5284 9.475 14.625V10.5775Z" stroke="white" stroke-opacity="0.7" stroke-width="0.2"/>
</svg>
