<svg width="31" height="31" viewBox="0 0 31 31" fill="none" xmlns="http://www.w3.org/2000/svg">
<rect width="31" height="31" rx="7" fill="white" fill-opacity="0.1"/>
<path d="M16.375 19.0001H11.125C10.8929 19.0001 10.6704 19.0922 10.5063 19.2563C10.3422 19.4204 10.25 19.643 10.25 19.8751C10.25 20.1071 10.3422 20.3297 10.5063 20.4938C10.6704 20.6579 10.8929 20.7501 11.125 20.7501H16.375C16.6071 20.7501 16.8296 20.6579 16.9937 20.4938C17.1578 20.3297 17.25 20.1071 17.25 19.8751C17.25 19.643 17.1578 19.4204 16.9937 19.2563C16.8296 19.0922 16.6071 19.0001 16.375 19.0001ZM12.875 13.7501H14.625C14.8571 13.7501 15.0796 13.6579 15.2437 13.4938C15.4078 13.3297 15.5 13.1071 15.5 12.8751C15.5 12.643 15.4078 12.4204 15.2437 12.2563C15.0796 12.0922 14.8571 12.0001 14.625 12.0001H12.875C12.6429 12.0001 12.4204 12.0922 12.2563 12.2563C12.0922 12.4204 12 12.643 12 12.8751C12 13.1071 12.0922 13.3297 12.2563 13.4938C12.4204 13.6579 12.6429 13.7501 12.875 13.7501ZM23.375 15.5001H20.75V7.62506C20.7506 7.47088 20.7105 7.31927 20.6337 7.18559C20.5568 7.05191 20.446 6.9409 20.3125 6.86381C20.1795 6.78701 20.0286 6.74658 19.875 6.74658C19.7214 6.74658 19.5705 6.78701 19.4375 6.86381L16.8125 8.36881L14.1875 6.86381C14.0545 6.78701 13.9036 6.74658 13.75 6.74658C13.5964 6.74658 13.4455 6.78701 13.3125 6.86381L10.6875 8.36881L8.06251 6.86381C7.92949 6.78701 7.7786 6.74658 7.62501 6.74658C7.47141 6.74658 7.32052 6.78701 7.18751 6.86381C7.05398 6.9409 6.94319 7.05191 6.86636 7.18559C6.78953 7.31927 6.74939 7.47088 6.75001 7.62506V21.6251C6.75001 22.3213 7.02657 22.9889 7.51885 23.4812C8.01113 23.9735 8.67881 24.2501 9.37501 24.2501H21.625C22.3212 24.2501 22.9889 23.9735 23.4812 23.4812C23.9734 22.9889 24.25 22.3213 24.25 21.6251V16.3751C24.25 16.143 24.1578 15.9204 23.9937 15.7563C23.8296 15.5922 23.6071 15.5001 23.375 15.5001ZM9.37501 22.5001C9.14294 22.5001 8.92038 22.4079 8.75629 22.2438C8.59219 22.0797 8.50001 21.8571 8.50001 21.6251V9.13881L10.25 10.1363C10.3851 10.2068 10.5352 10.2437 10.6875 10.2437C10.8399 10.2437 10.99 10.2068 11.125 10.1363L13.75 8.63131L16.375 10.1363C16.5101 10.2068 16.6602 10.2437 16.8125 10.2437C16.9649 10.2437 17.115 10.2068 17.25 10.1363L19 9.13881V21.6251C19.0024 21.9236 19.0556 22.2195 19.1575 22.5001H9.37501ZM22.5 21.6251C22.5 21.8571 22.4078 22.0797 22.2437 22.2438C22.0796 22.4079 21.8571 22.5001 21.625 22.5001C21.3929 22.5001 21.1704 22.4079 21.0063 22.2438C20.8422 22.0797 20.75 21.8571 20.75 21.6251V17.2501H22.5V21.6251ZM16.375 15.5001H11.125C10.8929 15.5001 10.6704 15.5922 10.5063 15.7563C10.3422 15.9204 10.25 16.143 10.25 16.3751C10.25 16.6071 10.3422 16.8297 10.5063 16.9938C10.6704 17.1579 10.8929 17.2501 11.125 17.2501H16.375C16.6071 17.2501 16.8296 17.1579 16.9937 16.9938C17.1578 16.8297 17.25 16.6071 17.25 16.3751C17.25 16.143 17.1578 15.9204 16.9937 15.7563C16.8296 15.5922 16.6071 15.5001 16.375 15.5001Z" fill="white" fill-opacity="0.7"/>
</svg>
