<svg width="19" height="19" viewBox="0 0 19 19" fill="none" xmlns="http://www.w3.org/2000/svg">
<path d="M4.70833 6.63458L4.71792 6.62404M8.54167 6.63458L8.55125 6.62404M4.70833 10.4679L4.71792 10.4574M8.54167 10.4679L8.55125 10.4574M4.70833 14.3012L4.71792 14.2907M8.54167 14.3012L8.55125 14.2907M12.375 18.125H1.45C1.2975 18.125 1.15125 18.0644 1.04341 17.9566C0.93558 17.8488 0.875 17.7025 0.875 17.55V3.36667C0.875 3.21417 0.93558 3.06791 1.04341 2.96008C1.15125 2.85225 1.2975 2.79167 1.45 2.79167H6.625V1.45C6.625 1.2975 6.68558 1.15125 6.79341 1.04341C6.90125 0.93558 7.0475 0.875 7.2 0.875H11.8C11.9525 0.875 12.0988 0.93558 12.2066 1.04341C12.3144 1.15125 12.375 1.2975 12.375 1.45V6.625M12.375 18.125H17.55C17.7025 18.125 17.8488 18.0644 17.9566 17.9566C18.0644 17.8488 18.125 17.7025 18.125 17.55V7.2C18.125 7.0475 18.0644 6.90125 17.9566 6.79341C17.8488 6.68558 17.7025 6.625 17.55 6.625H12.375M12.375 18.125V14.2917M12.375 6.625V10.4583M12.375 14.2917V10.4583M12.375 14.2917H14.2917M12.375 10.4583H14.2917" stroke="#1D1D1D" stroke-opacity="0.4" stroke-width="1.5" stroke-linecap="round" stroke-linejoin="round"/>
</svg>
