<svg width="22" height="16" viewBox="0 0 22 16" fill="none" xmlns="http://www.w3.org/2000/svg">
<path d="M13.1667 8.271C12.3632 8.271 11.5777 8.03274 10.9097 7.58634C10.2416 7.13995 9.72089 6.50547 9.41341 5.76315C9.10593 5.02082 9.02547 4.20399 9.18223 3.41594C9.33898 2.6279 9.72589 1.90403 10.294 1.33588C10.8622 0.767726 11.5861 0.38081 12.3741 0.224058C13.1622 0.0673053 13.979 0.147756 14.7213 0.455237C15.4636 0.762718 16.0981 1.28342 16.5445 1.95149C16.9909 2.61957 17.2292 3.40501 17.2292 4.2085C17.2292 5.28594 16.8012 6.31925 16.0393 7.08112C15.2774 7.84299 14.2441 8.271 13.1667 8.271ZM13.1667 1.771C12.6846 1.771 12.2133 1.91395 11.8125 2.18179C11.4116 2.44963 11.0992 2.83031 10.9147 3.27571C10.7302 3.7211 10.682 4.2112 10.776 4.68403C10.8701 5.15686 11.1022 5.59118 11.4431 5.93207C11.784 6.27296 12.2183 6.50511 12.6911 6.59916C13.164 6.69321 13.6541 6.64494 14.0995 6.46045C14.5449 6.27596 14.9255 5.96354 15.1934 5.5627C15.4612 5.16186 15.6042 4.69059 15.6042 4.2085C15.6042 3.56203 15.3474 2.94204 14.8902 2.48492C14.4331 2.0278 13.8131 1.771 13.1667 1.771ZM20.75 15.8543C20.5354 15.8515 20.3303 15.765 20.1786 15.6133C20.0268 15.4615 19.9403 15.2564 19.9375 15.0418C19.9375 12.9293 18.7892 11.521 13.1667 11.521C7.54417 11.521 6.39583 12.9293 6.39583 15.0418C6.39583 15.2573 6.31023 15.464 6.15786 15.6164C6.00548 15.7687 5.79882 15.8543 5.58333 15.8543C5.36785 15.8543 5.16118 15.7687 5.00881 15.6164C4.85644 15.464 4.77083 15.2573 4.77083 15.0418C4.77083 9.896 10.6533 9.896 13.1667 9.896C15.68 9.896 21.5625 9.896 21.5625 15.0418C21.5597 15.2564 21.4732 15.4615 21.3214 15.6133C21.1697 15.765 20.9646 15.8515 20.75 15.8543ZM7.01333 9.1485H6.66667C5.80471 9.06518 5.01116 8.64286 4.46059 7.97444C3.91001 7.30603 3.64751 6.44628 3.73083 5.58433C3.81416 4.72238 4.23647 3.92883 4.90489 3.37825C5.5733 2.82768 6.43305 2.56518 7.295 2.6485C7.40552 2.65325 7.51391 2.68052 7.61352 2.72863C7.71313 2.77675 7.80187 2.8447 7.87429 2.92832C7.94671 3.01194 8.00129 3.10947 8.03469 3.21493C8.06809 3.32039 8.07961 3.43157 8.06853 3.54163C8.05745 3.6517 8.02401 3.75834 7.97025 3.85503C7.9165 3.95172 7.84358 4.03641 7.75594 4.10392C7.6683 4.17143 7.5678 4.22033 7.4606 4.24762C7.3534 4.27492 7.24175 4.28004 7.1325 4.26266C6.92102 4.24158 6.70747 4.26333 6.50458 4.32661C6.3017 4.3899 6.11365 4.49342 5.95167 4.631C5.78714 4.76371 5.65068 4.92785 5.55024 5.11384C5.4498 5.29984 5.3874 5.50397 5.36667 5.71433C5.34427 5.92733 5.36448 6.14266 5.42612 6.34777C5.48777 6.55288 5.58962 6.74367 5.72574 6.90903C5.86185 7.07439 6.02952 7.21101 6.21896 7.31092C6.4084 7.41083 6.61583 7.47205 6.82917 7.491C7.18183 7.52116 7.5349 7.43764 7.83667 7.25266C8.02055 7.13917 8.24199 7.10338 8.45226 7.15315C8.66254 7.20293 8.84443 7.3342 8.95792 7.51808C9.07141 7.70196 9.1072 7.9234 9.05743 8.13368C9.00765 8.34395 8.87638 8.52584 8.6925 8.63933C8.19005 8.9598 7.60915 9.13594 7.01333 9.1485ZM1.25 15.0418C1.03538 15.039 0.830348 14.9525 0.678578 14.8008C0.526809 14.649 0.440306 14.4439 0.4375 14.2293C0.4375 11.3043 1.2175 9.35433 5.04167 9.35433C5.25716 9.35433 5.46382 9.43993 5.61619 9.59231C5.76856 9.74468 5.85417 9.95134 5.85417 10.1668C5.85417 10.3823 5.76856 10.589 5.61619 10.7414C5.46382 10.8937 5.25716 10.9793 5.04167 10.9793C2.49583 10.9793 2.0625 11.7918 2.0625 14.2293C2.05969 14.4439 1.97319 14.649 1.82142 14.8008C1.66965 14.9525 1.46462 15.039 1.25 15.0418Z" fill="#1D1D1D" fill-opacity="0.4"/>
</svg>
