<svg width="31" height="31" viewBox="0 0 31 31" fill="none" xmlns="http://www.w3.org/2000/svg">
<rect width="31" height="31" rx="7" fill="white" fill-opacity="0.1"/>
<path d="M19.6666 20.5837V22.417H6.83325V20.5837C6.83325 20.5837 6.83325 16.917 13.2499 16.917C19.6666 16.917 19.6666 20.5837 19.6666 20.5837ZM16.4583 11.8754C16.4583 11.2408 16.2701 10.6205 15.9176 10.0929C15.565 9.56531 15.0639 9.15409 14.4777 8.91126C13.8914 8.66843 13.2464 8.60489 12.624 8.72869C12.0016 8.85248 11.43 9.15805 10.9813 9.60674C10.5326 10.0554 10.227 10.6271 10.1032 11.2495C9.97944 11.8718 10.043 12.5169 10.2858 13.1031C10.5286 13.6894 10.9399 14.1905 11.4675 14.543C11.9951 14.8955 12.6154 15.0837 13.2499 15.0837C14.1008 15.0837 14.9169 14.7457 15.5186 14.144C16.1202 13.5423 16.4583 12.7263 16.4583 11.8754ZM19.6116 16.917C20.1751 17.3531 20.6362 17.9074 20.9625 18.5409C21.2887 19.1744 21.4722 19.8717 21.4999 20.5837V22.417H25.1666V20.5837C25.1666 20.5837 25.1666 17.2562 19.6116 16.917ZM18.7499 8.66704C18.119 8.66353 17.5019 8.85217 16.9808 9.20787C17.5376 9.98588 17.837 10.9186 17.837 11.8754C17.837 12.8321 17.5376 13.7649 16.9808 14.5429C17.5019 14.8986 18.119 15.0872 18.7499 15.0837C19.6008 15.0837 20.4169 14.7457 21.0186 14.144C21.6202 13.5423 21.9583 12.7263 21.9583 11.8754C21.9583 11.0245 21.6202 10.2084 21.0186 9.60674C20.4169 9.00506 19.6008 8.66704 18.7499 8.66704Z" fill="white" fill-opacity="0.7"/>
</svg>
