<svg width="26" height="26" viewBox="0 0 26 26" fill="none" xmlns="http://www.w3.org/2000/svg">
<path d="M24.7592 22.6908L19.2461 17.1777C20.5734 15.4108 21.2899 13.26 21.2875 11.05C21.2875 5.40508 16.6949 0.8125 11.05 0.8125C5.40508 0.8125 0.8125 5.40508 0.8125 11.05C0.8125 16.6949 5.40508 21.2875 11.05 21.2875C13.26 21.2899 15.4108 20.5734 17.1777 19.2461L22.6908 24.7592C22.9699 25.0086 23.3339 25.1418 23.708 25.1313C24.0822 25.1209 24.4382 24.9676 24.7029 24.7029C24.9676 24.4382 25.1209 24.0822 25.1313 23.708C25.1418 23.3339 25.0086 22.9699 24.7592 22.6908ZM3.7375 11.05C3.7375 9.60372 4.16637 8.18993 4.96988 6.98739C5.77339 5.78486 6.91544 4.8476 8.25163 4.29413C9.58781 3.74067 11.0581 3.59585 12.4766 3.87801C13.8951 4.16016 15.198 4.85661 16.2207 5.87928C17.2434 6.90195 17.9398 8.20492 18.222 9.6234C18.5041 11.0419 18.3593 12.5122 17.8059 13.8484C17.2524 15.1846 16.3151 16.3266 15.1126 17.1301C13.9101 17.9336 12.4963 18.3625 11.05 18.3625C9.11132 18.3602 7.25271 17.589 5.88185 16.2181C4.51099 14.8473 3.73983 12.9887 3.7375 11.05Z" fill="#2B1772"/>
</svg>
