<svg fill="none" height="20" viewBox="0 0 20 20" width="20" xmlns="http://www.w3.org/2000/svg">
    <path
        d="M19.5142 0.485651C19.4045 0.376511 19.266 0.300946 19.1149 0.267842C18.9637 0.234737 18.8063 0.245469 18.6611 0.298776L0.786068 6.79878C0.63191 6.85725 0.49919 6.96124 0.405534 7.09693C0.311878 7.23262 0.261719 7.39359 0.261719 7.55846C0.261719 7.72334 0.311878 7.88431 0.405534 8.02C0.49919 8.15569 0.63191 8.25968 0.786068 8.31815L7.76544 11.105L12.9167 5.93753L14.0623 7.08315L8.88669 12.2588L11.6817 19.2381C11.7419 19.3893 11.8461 19.5189 11.9808 19.6102C12.1156 19.7015 12.2746 19.7502 12.4373 19.75C12.6015 19.7467 12.7608 19.6936 12.8943 19.5979C13.0277 19.5022 13.129 19.3682 13.1848 19.2138L19.6848 1.33878C19.7402 1.19503 19.7535 1.0385 19.7233 0.887452C19.6931 0.736403 19.6206 0.597053 19.5142 0.485651Z"
        fill="#1D1D1D" fill-opacity="0.4" />
</svg>
