<svg width="31" height="31" viewBox="0 0 31 31" fill="none" xmlns="http://www.w3.org/2000/svg">
<path fill-rule="evenodd" clip-rule="evenodd" d="M15.5 12.5312C14.7126 12.5312 13.9575 12.844 13.4008 13.4008C12.844 13.9575 12.5312 14.7126 12.5312 15.5C12.5312 16.2874 12.844 17.0425 13.4008 17.5992C13.9575 18.156 14.7126 18.4688 15.5 18.4688C16.2874 18.4688 17.0425 18.156 17.5992 17.5992C18.156 17.0425 18.4688 16.2874 18.4688 15.5C18.4688 14.7126 18.156 13.9575 17.5992 13.4008C17.0425 12.844 16.2874 12.5312 15.5 12.5312ZM13.7188 15.5C13.7188 15.0276 13.9064 14.5745 14.2405 14.2405C14.5745 13.9064 15.0276 13.7188 15.5 13.7188C15.9724 13.7188 16.4255 13.9064 16.7595 14.2405C17.0936 14.5745 17.2813 15.0276 17.2813 15.5C17.2813 15.9724 17.0936 16.4255 16.7595 16.7595C16.4255 17.0936 15.9724 17.2813 15.5 17.2813C15.0276 17.2813 14.5745 17.0936 14.2405 16.7595C13.9064 16.4255 13.7188 15.9724 13.7188 15.5Z" fill="#F8F8F8"/>
<path fill-rule="evenodd" clip-rule="evenodd" d="M15.4803 6.98926C15.128 6.98926 14.8343 6.98926 14.5936 7.00509C14.3476 7.01534 14.105 7.06616 13.8756 7.15551C13.6114 7.26483 13.3713 7.42513 13.169 7.62725C12.9668 7.82938 12.8063 8.06936 12.6968 8.33351C12.582 8.61059 12.5511 8.90351 12.5385 9.22176C12.5372 9.33815 12.5064 9.45231 12.4489 9.55354C12.3915 9.65476 12.3092 9.73973 12.2099 9.80047C12.1077 9.85628 11.993 9.8852 11.8765 9.88451C11.7601 9.88382 11.6457 9.85353 11.5441 9.79651C11.2623 9.64767 10.9931 9.52813 10.6955 9.48855C10.412 9.45126 10.124 9.47018 9.84784 9.54421C9.57169 9.61824 9.31282 9.74593 9.08602 9.92001C8.89426 10.0743 8.72923 10.2591 8.59756 10.467C8.46298 10.6681 8.31573 10.9223 8.13998 11.227L8.12019 11.2619C7.94365 11.5667 7.79719 11.8208 7.69111 12.0377C7.58027 12.2641 7.49319 12.4874 7.46152 12.7344C7.386 13.3068 7.54091 13.8857 7.89219 14.3438C8.07506 14.5821 8.31336 14.7555 8.58252 14.9249C8.68287 14.9843 8.76648 15.0681 8.82548 15.1687C8.88448 15.2692 8.91693 15.3831 8.91977 15.4997C8.91693 15.6162 8.88448 15.7301 8.82548 15.8307C8.76648 15.9312 8.68287 16.0151 8.58252 16.0744C8.31336 16.2438 8.07586 16.4172 7.89219 16.6555C7.71812 16.8823 7.59042 17.1412 7.51639 17.4173C7.44236 17.6935 7.42345 17.9815 7.46073 18.265C7.49319 18.512 7.57948 18.7352 7.69031 18.9616C7.79719 19.1785 7.94365 19.4327 8.12019 19.7375L8.13998 19.7723C8.31573 20.0771 8.46298 20.3312 8.59756 20.5323C8.73769 20.7405 8.88811 20.9281 9.08602 21.0786C9.31276 21.2528 9.5716 21.3806 9.84776 21.4548C10.1239 21.5289 10.412 21.548 10.6955 21.5108C10.9931 21.4712 11.2623 21.3525 11.5441 21.2028C11.6456 21.1459 11.7598 21.1156 11.8761 21.1149C11.9925 21.1143 12.1071 21.1431 12.2091 21.1989C12.309 21.2591 12.3917 21.344 12.4495 21.4453C12.5073 21.5466 12.5382 21.661 12.5393 21.7776C12.5511 22.0958 12.582 22.3888 12.6976 22.6658C12.8069 22.9301 12.9672 23.1702 13.1694 23.3724C13.3715 23.5747 13.6115 23.7351 13.8756 23.8446C14.1052 23.9396 14.3427 23.9768 14.5936 23.9935C14.8343 24.0101 15.128 24.0101 15.4803 24.0101H15.5199C15.8722 24.0101 16.1659 24.0101 16.4066 23.9943C16.6583 23.9768 16.895 23.9396 17.1246 23.8438C17.3888 23.7345 17.6289 23.5742 17.8312 23.3721C18.0334 23.17 18.1939 22.93 18.3034 22.6658C18.4182 22.3888 18.4491 22.0958 18.4617 21.7776C18.4629 21.6611 18.4936 21.5467 18.5511 21.4454C18.6086 21.344 18.6909 21.2589 18.7903 21.1981C18.8926 21.1424 19.0073 21.1136 19.1238 21.1144C19.2402 21.1153 19.3546 21.1457 19.4561 21.2028C19.7379 21.3517 20.0071 21.4712 20.3047 21.51C20.8771 21.5855 21.456 21.4306 21.9142 21.0793C22.1121 20.9273 22.2625 20.7405 22.4026 20.5323C22.5372 20.3312 22.6845 20.0771 22.8602 19.7723L22.88 19.7375C23.0566 19.4327 23.203 19.1785 23.3091 18.9616C23.4199 18.7352 23.507 18.5112 23.5387 18.265C23.6142 17.6926 23.4593 17.1137 23.108 16.6555C22.9251 16.4172 22.6869 16.2438 22.4177 16.0744C22.3173 16.0151 22.2337 15.9312 22.1747 15.8307C22.1157 15.7301 22.0833 15.6162 22.0804 15.4997C22.0804 15.2796 22.2008 15.0611 22.4177 14.9249C22.6869 14.7555 22.9244 14.5821 23.108 14.3438C23.2821 14.117 23.4098 13.8582 23.4838 13.582C23.5579 13.3059 23.5768 13.0178 23.5395 12.7344C23.5018 12.4911 23.4242 12.2557 23.3099 12.0377C23.1747 11.7747 23.0314 11.5159 22.88 11.2619L22.8602 11.227C22.7156 10.969 22.563 10.7156 22.4026 10.467C22.271 10.2593 22.106 10.0748 21.9142 9.9208C21.6874 9.74659 21.4286 9.61875 21.1525 9.54458C20.8763 9.47041 20.5882 9.45137 20.3047 9.48855C20.0071 9.52813 19.7379 9.64688 19.4561 9.79651C19.3546 9.85339 19.2404 9.8836 19.1241 9.88429C19.0078 9.88498 18.8932 9.85614 18.7911 9.80047C18.6915 9.73992 18.6089 9.65503 18.5512 9.5538C18.4934 9.45256 18.4624 9.3383 18.4609 9.22176C18.4491 8.90351 18.4182 8.61059 18.3026 8.33351C18.1933 8.06929 18.033 7.82919 17.8309 7.62693C17.6287 7.42468 17.3888 7.26421 17.1246 7.15472C16.895 7.05972 16.6575 7.02251 16.4066 7.00588C16.1659 6.98926 15.8722 6.98926 15.5199 6.98926H15.4803ZM14.33 8.25197C14.391 8.22663 14.4836 8.20367 14.6744 8.19022C14.8699 8.17676 15.1233 8.17676 15.5001 8.17676C15.8769 8.17676 16.1303 8.17676 16.3258 8.19022C16.5166 8.20367 16.6092 8.22663 16.6702 8.25197C16.9132 8.35251 17.1056 8.54488 17.2061 8.78792C17.2378 8.86392 17.2639 8.98347 17.2742 9.26609C17.298 9.89309 17.6218 10.4971 18.1965 10.8288C18.7713 11.1613 19.4561 11.1392 20.011 10.8463C20.2612 10.714 20.3776 10.6768 20.4599 10.6665C20.72 10.6322 20.9831 10.7025 21.1914 10.8621C21.2436 10.9025 21.3101 10.9713 21.417 11.1297C21.5271 11.2928 21.6537 11.512 21.8421 11.8382C22.0306 12.1644 22.1564 12.3845 22.2427 12.5602C22.3274 12.732 22.3536 12.8238 22.3615 12.8895C22.3959 13.1497 22.3255 13.4128 22.1659 13.621C22.1153 13.6868 22.025 13.7691 21.7859 13.9195C21.2539 14.2536 20.8929 14.8363 20.8929 15.4997C20.8929 16.1631 21.2539 16.7458 21.7859 17.0798C22.025 17.2303 22.1153 17.3126 22.1659 17.3783C22.3259 17.5865 22.3955 17.8493 22.3615 18.1098C22.3536 18.1755 22.3266 18.2681 22.2427 18.4391C22.1564 18.6157 22.0306 18.835 21.8421 19.1611C21.6537 19.4873 21.5263 19.7066 21.417 19.8697C21.3101 20.028 21.2436 20.0969 21.1914 20.1373C20.9831 20.2968 20.72 20.3672 20.4599 20.3328C20.3776 20.3225 20.262 20.2853 20.011 20.1531C19.4569 19.8602 18.7713 19.838 18.1965 20.1697C17.6218 20.5022 17.298 21.1063 17.2742 21.7333C17.2639 22.0159 17.2378 22.1354 17.2061 22.2114C17.1564 22.3316 17.0835 22.4408 16.9915 22.5328C16.8996 22.6247 16.7904 22.6977 16.6702 22.7474C16.6092 22.7727 16.5166 22.7957 16.3258 22.8091C16.1303 22.8226 15.8769 22.8226 15.5001 22.8226C15.1233 22.8226 14.8699 22.8226 14.6744 22.8091C14.4836 22.7957 14.391 22.7727 14.33 22.7474C14.2099 22.6977 14.1007 22.6247 14.0087 22.5328C13.9167 22.4408 13.8438 22.3316 13.7941 22.2114C13.7624 22.1354 13.7363 22.0159 13.726 21.7333C13.7022 21.1063 13.3784 20.5022 12.8037 20.1705C12.2289 19.838 11.5441 19.8602 10.9892 20.1531C10.739 20.2853 10.6226 20.3225 10.5403 20.3328C10.2802 20.3672 10.0171 20.2968 9.80881 20.1373C9.75656 20.0969 9.69007 20.028 9.58319 19.8697C9.43429 19.6379 9.29251 19.4016 9.15807 19.1611C8.96965 18.835 8.84377 18.6149 8.75748 18.4391C8.67277 18.2673 8.64665 18.1755 8.63873 18.1098C8.60436 17.8497 8.6747 17.5866 8.83427 17.3783C8.88494 17.3126 8.97519 17.2303 9.21427 17.0798C9.74627 16.7458 10.1073 16.1631 10.1073 15.4997C10.1073 14.8363 9.74627 14.2536 9.21427 13.9195C8.97519 13.7691 8.88494 13.6868 8.83427 13.621C8.6747 13.4128 8.60436 13.1497 8.63873 12.8895C8.64665 12.8238 8.67356 12.7312 8.75748 12.5602C8.84377 12.3837 8.96965 12.1644 9.15807 11.8382C9.34648 11.512 9.47394 11.2928 9.58319 11.1297C9.69007 10.9713 9.75656 10.9025 9.80881 10.8621C10.0171 10.7025 10.2802 10.6322 10.5403 10.6665C10.6226 10.6768 10.7382 10.714 10.9892 10.8463C11.5434 11.1392 12.2289 11.1613 12.8037 10.8288C13.3784 10.4971 13.7022 9.89309 13.726 9.26609C13.7363 8.98347 13.7624 8.86392 13.7941 8.78792C13.8946 8.54488 14.087 8.35251 14.33 8.25197Z" fill="#F8F8F8"/>
<rect width="31" height="31" rx="7" fill="white" fill-opacity="0.1"/>
</svg>
