<svg width="31" height="31" viewBox="0 0 31 31" fill="none" xmlns="http://www.w3.org/2000/svg">
<rect width="31" height="31" rx="7" fill="white" fill-opacity="0.1"/>
<g clip-path="url(#clip0_528_1165)">
<path d="M16.6875 15.5C16.6875 16.1568 16.1568 16.6875 15.5 16.6875C14.8432 16.6875 14.3125 16.1568 14.3125 15.5V7.1875C14.3125 6.53178 14.8432 6 15.5 6C16.1568 6 16.6875 6.53178 16.6875 7.1875V15.5ZM8.96875 15.5C8.96875 19.107 11.893 22.0312 15.5 22.0312C19.107 22.0312 22.0312 19.107 22.0312 15.5C22.0312 13.4812 21.1146 11.674 19.6748 10.4754C19.1701 10.0561 19.0996 9.30756 19.5189 8.80324C19.9383 8.29893 20.6879 8.23027 21.1926 8.64961C23.152 10.2824 24.4062 12.7465 24.4062 15.4666C24.4062 20.417 20.417 24.4062 15.5 24.4062C10.583 24.4062 6.59375 20.417 6.59375 15.4666C6.59375 12.7465 7.84619 10.2824 9.80742 8.64961C10.3121 8.23027 11.0617 8.29893 11.4811 8.80324C11.867 9.30756 11.8299 10.0561 11.3252 10.4754C9.88535 11.674 8.96875 13.4812 8.96875 15.5Z" fill="white" fill-opacity="0.7"/>
</g>
<defs>
<clipPath id="clip0_528_1165">
<rect width="19" height="19" fill="white" transform="translate(6 6)"/>
</clipPath>
</defs>
</svg>
