<svg width="19" height="19" viewBox="0 0 19 19" fill="none" xmlns="http://www.w3.org/2000/svg">
<path d="M19 2.96875C19 3.63672 18.4693 4.25273 17.575 4.75C16.4951 5.34746 14.8846 5.77051 13.0365 5.89668C12.8992 5.82988 12.7619 5.7668 12.6172 5.71113C11.1551 5.09883 9.21055 4.75 7.125 4.75C6.81699 4.75 6.51641 4.75742 6.21582 4.77227L6.175 4.75C5.28066 4.25273 4.75 3.63672 4.75 2.96875C4.75 1.32852 7.94141 0 11.875 0C15.8086 0 19 1.32852 19 2.96875ZM5.96348 5.97832C6.34199 5.95234 6.73164 5.9375 7.125 5.9375C9.4332 5.9375 11.4816 6.39395 12.7842 7.10273C13.7045 7.60371 14.25 8.22715 14.25 8.90625C14.25 9.05469 14.224 9.19941 14.1721 9.34043C14.0014 9.83027 13.5412 10.2793 12.8732 10.6578C12.8695 10.6615 12.8621 10.6615 12.8584 10.6652C12.8473 10.6727 12.8361 10.6764 12.825 10.6838C11.5262 11.4037 9.45547 11.8713 7.125 11.8713C4.91328 11.8713 2.93535 11.452 1.62539 10.7914C1.55488 10.758 1.48809 10.7209 1.42129 10.6838C0.530664 10.1902 0 9.57422 0 8.90625C0 7.61484 1.98164 6.5127 4.75 6.1082C5.13965 6.05254 5.54414 6.00801 5.96348 5.97832ZM15.4375 8.90625C15.4375 8.09355 15.0441 7.42559 14.5432 6.92461C15.5934 6.76133 16.5545 6.50156 17.3709 6.16387C17.9758 5.91152 18.5398 5.5998 19 5.21758V6.53125C19 7.24746 18.3877 7.90801 17.3746 8.42012C16.8328 8.69473 16.1723 8.92852 15.4301 9.10664C15.4338 9.03984 15.4375 8.97676 15.4375 8.90996V8.90625ZM14.25 12.4688C14.25 13.1367 13.7193 13.7527 12.825 14.25C12.7582 14.2871 12.6914 14.3205 12.6209 14.3576C11.3146 15.0182 9.33672 15.4375 7.125 15.4375C4.79453 15.4375 2.72383 14.9699 1.425 14.25C0.530664 13.7527 0 13.1367 0 12.4688V11.1551C0.463867 11.5373 1.02422 11.849 1.6291 12.1014C3.09492 12.7137 5.03945 13.0625 7.125 13.0625C9.21055 13.0625 11.1551 12.7137 12.6209 12.1014C12.9104 11.9826 13.1887 11.8453 13.4521 11.6969C13.6785 11.5707 13.89 11.4297 14.0904 11.2812C14.1461 11.2404 14.198 11.1959 14.25 11.1551V12.4688ZM15.4375 12.4688V10.3201C16.1426 10.1643 16.792 9.96758 17.3709 9.72637C17.9758 9.47402 18.5398 9.1623 19 8.78008V10.0938C19 10.4834 18.8145 10.873 18.4471 11.2404C17.8422 11.8453 16.7771 12.3426 15.4301 12.6654C15.4338 12.6023 15.4375 12.5355 15.4375 12.4688ZM7.125 16.625C9.21055 16.625 11.1551 16.2762 12.6209 15.6639C13.2258 15.4115 13.7898 15.0998 14.25 14.7176V16.0312C14.25 17.6715 11.0586 19 7.125 19C3.19141 19 0 17.6715 0 16.0312V14.7176C0.463867 15.0998 1.02422 15.4115 1.6291 15.6639C3.09492 16.2762 5.03945 16.625 7.125 16.625Z" fill="#1D1D1D" fill-opacity="0.4"/>
</svg>
