<svg width="31" height="31" viewBox="0 0 31 31" fill="none" xmlns="http://www.w3.org/2000/svg">
<rect width="31" height="31" rx="7" fill="white" fill-opacity="0.1"/>
<path d="M14.8123 6.77707C16.5789 6.6378 18.3462 7.03821 19.8803 7.92532C21.4143 8.81243 22.6429 10.1444 23.4033 11.745C24.1638 13.3457 24.4204 15.1395 24.139 16.8891C23.8577 18.6387 23.0518 20.2617 21.8279 21.5432C20.604 22.8248 19.0198 23.7045 17.285 24.066C15.5501 24.4275 13.7464 24.2537 12.1125 23.5677C10.4786 22.8816 9.09153 21.7156 8.1348 20.224C7.17807 18.7324 6.6968 16.9854 6.75467 15.2143C6.76105 14.9967 6.8536 14.7906 7.01195 14.6413C7.1703 14.4919 7.38148 14.4116 7.59904 14.418C7.8166 14.4244 8.02272 14.5169 8.17204 14.6753C8.32137 14.8336 8.40167 15.0448 8.39529 15.2624C8.33987 16.9389 8.87906 18.5811 9.91753 19.8985C10.956 21.2159 12.4269 22.1236 14.07 22.4612C15.7132 22.7988 17.4228 22.5445 18.8965 21.7433C20.3703 20.942 21.5133 19.6455 22.1233 18.0829C22.7334 16.5203 22.7713 14.7923 22.2303 13.2044C21.6893 11.6166 20.6042 10.2712 19.167 9.40613C17.7297 8.54108 16.0329 8.21211 14.3766 8.47737C12.7202 8.74263 11.211 9.58505 10.1158 10.8557L9.89264 11.128H11.9456L12.0572 11.1357C12.2543 11.1618 12.4353 11.2587 12.5664 11.4083C12.6975 11.5579 12.7697 11.75 12.7697 11.9489C12.7697 12.1478 12.6975 12.3399 12.5664 12.4895C12.4353 12.6391 12.2543 12.7359 12.0572 12.7621L11.9456 12.7686H8.11967L8.00811 12.7621C7.83059 12.7377 7.66595 12.6558 7.53935 12.529C7.41275 12.4022 7.33114 12.2374 7.30701 12.0599L7.29936 11.9483V7.57332L7.30701 7.46285C7.33114 7.2853 7.41275 7.12053 7.53935 6.99373C7.66595 6.86693 7.83059 6.78507 8.00811 6.76066L8.11967 6.7541L8.23123 6.76066C8.40874 6.78507 8.57338 6.86693 8.69999 6.99373C8.82659 7.12053 8.90819 7.2853 8.93232 7.46285L8.93998 7.57332L8.93889 9.70941C10.4403 8.0046 12.5474 6.95261 14.8123 6.77707ZM15.2258 11.128L15.3373 11.1357C15.5148 11.1601 15.6795 11.2419 15.8061 11.3687C15.9327 11.4955 16.0143 11.6603 16.0384 11.8378L16.0461 11.9483V15.4997L17.9601 15.5008L18.0717 15.5085C18.268 15.5355 18.448 15.6327 18.5782 15.7821C18.7084 15.9314 18.7802 16.1229 18.7802 16.3211C18.7802 16.5193 18.7084 16.7108 18.5782 16.8602C18.448 17.0096 18.268 17.1068 18.0717 17.1338L17.9601 17.1414H15.2258L15.1142 17.1338C14.9368 17.1094 14.7723 17.0277 14.6457 16.9011C14.5192 16.7746 14.4375 16.61 14.4131 16.4327L14.4054 16.32V11.9483L14.4131 11.8378C14.4372 11.6603 14.5188 11.4955 14.6454 11.3687C14.772 11.2419 14.9367 11.1601 15.1142 11.1357L15.2258 11.1291V11.128Z" fill="white" fill-opacity="0.7"/>
<path d="M8.49524 15.2657L8.49525 15.2653C8.50241 15.0212 8.41232 14.7843 8.2448 14.6067C8.07728 14.429 7.84605 14.3252 7.60198 14.318C7.3579 14.3109 7.12099 14.401 6.94334 14.5685C6.76577 14.7359 6.66197 14.967 6.65472 15.211C6.59619 17.0024 7.08296 18.7693 8.05062 20.278C9.01829 21.7867 10.4212 22.966 12.0738 23.6599C13.7264 24.3538 15.5507 24.5295 17.3054 24.1639C19.06 23.7983 20.6623 22.9085 21.9002 21.6123C23.1381 20.3161 23.9532 18.6746 24.2378 16.905C24.5223 15.1354 24.2628 13.321 23.4937 11.7021C22.7245 10.0832 21.4819 8.736 19.9303 7.83875C18.3788 6.94153 16.5914 6.53654 14.8046 6.67737C12.6005 6.84819 10.5441 7.83964 9.03902 9.45023L9.03998 7.57337L9.04022 7.57337L9.03974 7.56641L9.03208 7.45594L9.0323 7.45592L9.03141 7.44938C9.00434 7.25019 8.91279 7.06534 8.77075 6.92308C8.62871 6.78082 8.44401 6.68898 8.24485 6.6616L8.24489 6.66129L8.2371 6.66084L8.12554 6.65427L8.12558 6.65358L8.1138 6.65427L8.00223 6.66084L8.00222 6.66053L7.99448 6.6616C7.79533 6.68898 7.61062 6.78082 7.46858 6.92308C7.32655 7.06534 7.235 7.25019 7.20792 7.44938L7.20771 7.44935L7.20725 7.45594L7.1996 7.56641L7.19936 7.56639V7.57332V11.9483H7.19912L7.19959 11.9552L7.20725 12.0667L7.20703 12.0667L7.20792 12.0733C7.235 12.2725 7.32655 12.4574 7.46858 12.5997C7.61062 12.7419 7.79533 12.8338 7.99448 12.8611L7.99444 12.8614L8.00223 12.8619L8.1138 12.8685L8.11379 12.8686H8.11967H11.9456V12.8688L11.9515 12.8685L12.063 12.8619L12.0631 12.8622L12.0703 12.8612C12.2915 12.8319 12.4945 12.7232 12.6416 12.5554C12.7886 12.3875 12.8697 12.172 12.8697 11.9489C12.8697 11.7257 12.7886 11.5102 12.6416 11.3424C12.4945 11.1745 12.2915 11.0658 12.0703 11.0365L12.0703 11.0363L12.064 11.0359L11.9525 11.0282L11.9525 11.028H11.9456H10.1038L10.1923 10.92C11.2721 9.6678 12.7597 8.83758 14.3924 8.57611C16.0254 8.31458 17.6984 8.63893 19.1154 9.49181C20.5324 10.3447 21.6022 11.6712 22.1356 13.2367C22.669 14.8022 22.6317 16.5059 22.0302 18.0465C21.4287 19.5871 20.3018 20.8654 18.8488 21.6554C17.3957 22.4454 15.7102 22.6961 14.0901 22.3632C12.4701 22.0304 11.0199 21.1354 9.99607 19.8366C8.9722 18.5377 8.44059 16.9187 8.49524 15.2657ZM15.2326 11.0282L15.1258 11.0209V11.0348L15.1083 11.0358L15.1083 11.0355L15.1006 11.0366C14.9014 11.064 14.7167 11.1558 14.5747 11.2981C14.4326 11.4403 14.3411 11.6252 14.314 11.8244L14.3138 11.8244L14.3133 11.8309L14.3057 11.9414L14.3054 11.9414V11.9483V16.32H14.3052L14.3057 16.3268L14.3133 16.4395L14.3131 16.4395L14.314 16.4463C14.3414 16.6453 14.433 16.8298 14.575 16.9719C14.717 17.1139 14.9016 17.2055 15.1006 17.2329L15.1006 17.2331L15.1074 17.2336L15.2189 17.2412L15.2189 17.2414H15.2258H17.9601V17.2417L17.967 17.2412L18.0785 17.2336L18.0786 17.2338L18.0853 17.2329C18.3056 17.2025 18.5075 17.0935 18.6536 16.9259C18.7997 16.7583 18.8802 16.5435 18.8802 16.3211C18.8802 16.0988 18.7997 15.8839 18.6536 15.7163C18.5075 15.5487 18.3056 15.4397 18.0853 15.4094L18.0854 15.4092L18.0785 15.4087L17.967 15.4011L17.967 15.4008L17.9602 15.4008L16.1461 15.3998V11.9483H16.1463L16.1458 11.9414L16.1382 11.8309L16.1384 11.8309L16.1375 11.8244C16.1104 11.6252 16.0189 11.4403 15.8768 11.2981C15.7348 11.1558 15.5501 11.064 15.3509 11.0366L15.351 11.0364L15.3442 11.0359L15.2326 11.0282Z" stroke="white" stroke-opacity="0.7" stroke-width="0.2"/>
</svg>
