<svg width="31" height="31" viewBox="0 0 31 31" fill="none" xmlns="http://www.w3.org/2000/svg">
<rect width="31" height="31" rx="7" fill="white" fill-opacity="0.1"/>
<path d="M16 26C13.6833 25.4167 11.7707 24.0873 10.262 22.012C8.75333 19.9367 7.99933 17.6327 8 15.1V9L16 6L24 9V15.1C24 17.6333 23.2457 19.9377 21.737 22.013C20.2283 24.0883 18.316 25.4173 16 26ZM16 23.9C17.6167 23.4 18.9667 22.4123 20.05 20.937C21.1333 19.4617 21.7667 17.816 21.95 16H16V8.125L10 10.375V15.55C10 15.6667 10.0167 15.8167 10.05 16H16V23.9Z" fill="white" fill-opacity="0.7"/>
</svg>
